<svg width="119" height="119" viewBox="0 0 119 119" fill="none" xmlns="http://www.w3.org/2000/svg">
<circle cx="59.5" cy="59.5" r="59.5" fill="#FFD582"/>
<path d="M81 52.5005C82.4587 52.5005 83.8576 53.0799 84.8891 54.1114C85.9205 55.1428 86.5 56.5418 86.5 58.0005V59.3755C86.5 64.034 80.3207 74.473 75.5467 78.5787L75.5 78.6145V80.0005C75.5004 81.3881 74.9764 82.7245 74.0329 83.742C73.0894 84.7594 71.7962 85.3827 70.4125 85.4867L70 85.5005H48C46.5413 85.5005 45.1424 84.921 44.1109 83.8896C43.0795 82.8581 42.5 81.4592 42.5 80.0005V78.6365L42.3212 78.4907C37.4812 74.3767 31.8877 64.837 31.5192 59.8732L31.5 59.3755V58.0005C31.5 56.5418 32.0795 55.1428 33.1109 54.1114C34.1424 53.0799 35.5413 52.5005 37 52.5005H81ZM57.3967 33.7675C57.6893 33.5449 58.0234 33.3833 58.3795 33.2921C58.7355 33.2009 59.1062 33.182 59.4697 33.2365C59.8332 33.291 60.1821 33.4178 60.4957 33.6094C60.8093 33.8011 61.0814 34.0536 61.2957 34.3522C61.5101 34.6508 61.6624 34.9893 61.7437 35.3477C61.825 35.7061 61.8337 36.0772 61.7691 36.4391C61.7046 36.8009 61.5681 37.1461 61.3679 37.4543C61.1676 37.7625 60.9076 38.0275 60.6033 38.2335C59.572 38.976 58.9725 40.175 59 41.5582C58.9867 42.1831 59.1257 42.8019 59.405 43.361C59.6843 43.9201 60.0956 44.4029 60.6033 44.7675C60.9076 44.9735 61.1676 45.2384 61.3679 45.5466C61.5681 45.8548 61.7046 46.2001 61.7691 46.5619C61.8337 46.9237 61.825 47.2948 61.7437 47.6533C61.6624 48.0117 61.5101 48.3502 61.2957 48.6488C61.0814 48.9473 60.8093 49.1999 60.4957 49.3915C60.1821 49.5832 59.8332 49.71 59.4697 49.7645C59.1062 49.819 58.7355 49.8001 58.3795 49.7089C58.0234 49.6177 57.6893 49.456 57.3967 49.2335C56.1765 48.3631 55.1849 47.2106 54.5064 45.8741C53.8278 44.5377 53.4826 43.0569 53.5 41.5582C53.4685 40.0409 53.8068 38.5387 54.4857 37.1813C55.1646 35.824 56.1637 34.6523 57.3967 33.7675ZM46.3967 33.7675C46.6893 33.5449 47.0234 33.3833 47.3795 33.2921C47.7355 33.2009 48.1062 33.182 48.4697 33.2365C48.8332 33.291 49.1821 33.4178 49.4957 33.6094C49.8093 33.8011 50.0814 34.0536 50.2957 34.3522C50.5101 34.6508 50.6624 34.9893 50.7437 35.3477C50.825 35.7061 50.8337 36.0772 50.7691 36.4391C50.7046 36.8009 50.5681 37.1461 50.3679 37.4543C50.1676 37.7625 49.9076 38.0275 49.6033 38.2335C48.572 38.976 47.9725 40.175 48 41.5582C47.9867 42.1831 48.1257 42.8019 48.405 43.361C48.6843 43.9201 49.0956 44.4029 49.6033 44.7675C49.9076 44.9735 50.1676 45.2384 50.3679 45.5466C50.5681 45.8548 50.7046 46.2001 50.7691 46.5619C50.8337 46.9237 50.825 47.2948 50.7437 47.6533C50.6624 48.0117 50.5101 48.3502 50.2957 48.6488C50.0814 48.9473 49.8093 49.1999 49.4957 49.3915C49.1821 49.5832 48.8332 49.71 48.4697 49.7645C48.1062 49.819 47.7355 49.8001 47.3795 49.7089C47.0234 49.6177 46.6893 49.456 46.3967 49.2335C45.1765 48.3631 44.1849 47.2106 43.5064 45.8741C42.8278 44.5377 42.4826 43.0569 42.5 41.5582C42.4685 40.0409 42.8068 38.5387 43.4857 37.1813C44.1646 35.824 45.1637 34.6523 46.3967 33.7675Z" fill="black"/>
<g clip-path="url(#clip0_851_3269)">
<path d="M66.5604 49.0076C66.637 48.202 66.8256 47.7847 67.2598 47.4493C67.5214 47.2488 67.6869 47.185 68.0731 47.1449C69.3274 47.0837 70.5829 47.0497 71.8387 47.0429L72.3636 47.0429L72.3636 45.2987L75.0686 45.2987L75.0686 47.0429L76.9336 47.0429L76.9336 51.4516L75.065 51.4516L75.065 53.9795L72.3619 53.9795L72.3619 51.4498L66.6263 51.4498L66.6085 51.3405C66.5373 50.914 66.5088 49.5307 66.5587 49.0076M66.6583 23.6922C66.9342 23.1582 67.7777 22.8848 68.5376 23.0853C68.9575 23.1947 69.2334 23.3624 69.5768 23.7159C69.7722 23.9008 69.9322 24.1215 70.0484 24.3666C70.4239 25.1138 70.5805 25.7663 70.8457 27.6836C70.988 28.7189 71.2069 29.8507 71.3012 30.053C71.3867 30.2334 71.5628 30.33 71.812 30.33C72.2782 30.33 72.563 29.8525 72.563 29.0761C72.5612 28.5548 72.4277 28.1101 72.207 27.8987C72.0586 27.7613 71.8693 27.6791 71.6696 27.6654L71.5272 27.6654L71.5272 27.1278C71.5272 26.8307 71.5183 25.883 71.5059 25.0209L71.4845 23.4517L71.6892 23.4754C72.4437 23.5628 73.2517 23.9711 73.8247 24.5507C74.5579 25.2943 74.9921 26.3896 75.2003 28.0245C75.2928 28.8007 75.3155 29.5841 75.2679 30.3646C75.0544 32.7431 74.1468 34.3415 72.8406 34.6367C72.5612 34.7005 72.3975 34.7041 69.5662 34.7041L66.5889 34.7041L66.5889 30.3664L67.7741 30.3664C68.4254 30.3664 68.9593 30.3555 68.9593 30.3446C68.9593 30.2899 68.671 29.3185 68.5625 29.0032C68.4059 28.5566 68.3098 28.358 68.1158 28.0882C67.9467 27.855 67.6976 27.7 67.4929 27.7C67.3185 27.7 66.9804 27.8768 66.7722 28.0791L66.5889 28.2559L66.5907 26.0379C66.5943 23.9 66.596 23.8162 66.6601 23.6941M70.8119 36.8602L75.033 36.8602L75.033 40.961L74.5579 40.961L74.0827 40.9628L74.1824 41.0375C74.8782 41.5588 75.2412 42.3279 75.2412 43.2848C75.2412 43.5946 75.2234 43.744 75.1576 43.9955C75.1131 44.1705 75.0686 44.3181 75.0633 44.3236C75.0561 44.3327 74.4475 44.3473 73.7108 44.3601L72.3725 44.3856L72.3547 43.5545C72.3423 42.9585 72.3227 42.6614 72.2836 42.5065C72.1448 41.9433 71.7853 41.5406 71.2799 41.382C71.093 41.3237 70.9311 41.32 68.8365 41.3273L66.5925 41.3383L66.5925 36.8584L70.8119 36.8602Z" fill="black"/>
</g>
<defs>
<clipPath id="clip0_851_3269">
<rect width="43" height="26" fill="white" transform="translate(83 17) rotate(90)"/>
</clipPath>
</defs>
</svg>
