<svg width="119" height="119" viewBox="0 0 119 119" fill="none" xmlns="http://www.w3.org/2000/svg">
<circle cx="59.5" cy="59.5" r="59.5" fill="#FFD582"/>
<path fill-rule="evenodd" clip-rule="evenodd" d="M57.9788 32.125C60.9689 32.1252 63.8767 33.1041 66.2582 34.9122C68.6396 36.7203 70.3639 39.2581 71.1675 42.1382L71.3257 42.7617L77.0136 41.3413C77.4293 41.2378 77.8622 41.2233 78.284 41.2987C78.7057 41.3742 79.1067 41.5379 79.4608 41.7791C79.8149 42.0203 80.114 42.3336 80.3386 42.6985C80.5631 43.0633 80.7081 43.4715 80.764 43.8962L80.7913 44.2917V49.7971C82.5061 51.4412 83.9114 53.3802 84.9402 55.5215L85.3599 56.4583H86.8747C87.6197 56.4584 88.3387 56.732 88.8955 57.227C89.4522 57.7221 89.8079 58.4042 89.895 59.1441L89.9163 59.5V68.625C89.9164 69.1256 89.7929 69.6185 89.5568 70.06C89.3207 70.5015 88.9793 70.8778 88.5628 71.1557L88.2343 71.3443L84.6816 73.1236C83.2272 75.9374 81.1205 78.3623 78.5375 80.1955L77.7497 80.7248V83.8333C77.7496 84.5783 77.4761 85.2974 76.981 85.8541C76.4859 86.4109 75.8038 86.7665 75.0639 86.8537L74.708 86.875H65.583C64.838 86.8749 64.1189 86.6014 63.5622 86.1063C63.0055 85.6113 62.6498 84.9291 62.5626 84.1892L62.5413 83.8333H59.4997C59.4996 84.5783 59.2261 85.2974 58.731 85.8541C58.2359 86.4109 57.5538 86.7665 56.8139 86.8537L56.458 86.875H47.333C46.588 86.8749 45.8689 86.6014 45.3122 86.1063C44.7555 85.6113 44.3998 84.9291 44.3126 84.1892L44.2913 83.8333V80.7248C42.094 79.3199 40.1959 77.4947 38.7061 75.3541C37.2164 73.2134 36.1643 70.7994 35.6104 68.2509C33.8168 67.7171 32.2306 66.6451 31.0663 65.18C29.9021 63.7149 29.2161 61.9275 29.1013 60.0597L29.083 59.5V57.9792C29.0839 57.2039 29.3807 56.4582 29.9129 55.8945C30.4451 55.3308 31.1725 54.9915 31.9464 54.9461C32.7203 54.9007 33.4824 55.1525 34.0769 55.6501C34.6714 56.1476 35.0535 56.8535 35.145 57.6233L35.1663 57.9792V59.5C35.1663 59.9502 35.2637 60.379 35.4401 60.7623C35.9044 58.0239 36.94 55.414 38.4797 53.1024C40.0194 50.7907 42.0286 48.8292 44.3765 47.3455C44.1607 45.4307 44.3516 43.492 44.9367 41.656C45.5219 39.8201 46.4881 38.1285 47.7721 36.6917C49.0561 35.255 50.629 34.1055 52.3878 33.3185C54.1467 32.5316 56.0519 32.1249 57.9788 32.125ZM71.6663 56.4583C70.8596 56.4583 70.086 56.7788 69.5156 57.3492C68.9451 57.9196 68.6247 58.6933 68.6247 59.5C68.6247 60.3067 68.9451 61.0804 69.5156 61.6508C70.086 62.2212 70.8596 62.5417 71.6663 62.5417C72.473 62.5417 73.2467 62.2212 73.8171 61.6508C74.3875 61.0804 74.708 60.3067 74.708 59.5C74.708 58.6933 74.3875 57.9196 73.8171 57.3492C73.2467 56.7788 72.473 56.4583 71.6663 56.4583ZM57.9788 38.2083C56.1365 38.2083 54.3568 38.8772 52.9705 40.0906C51.5841 41.3041 50.6855 42.9796 50.4416 44.8057C51.9156 44.4634 53.4239 44.2909 54.9372 44.2917H65.2089L65.4218 44.24C65.0611 42.5335 64.1247 41.0028 62.7696 39.9047C61.4145 38.8065 59.723 38.2076 57.9788 38.2083Z" fill="black"/>
</svg>
