<svg width="119" height="119" viewBox="0 0 119 119" fill="none" xmlns="http://www.w3.org/2000/svg">
<circle cx="59.5" cy="59.5" r="59.5" fill="#FFD582"/>
<path d="M83.2445 35.7503V40.917C83.2445 45.713 81.3393 50.3126 77.948 53.7038C74.5567 57.0951 69.9571 59.0003 65.1611 59.0003H62.5778V61.5837H75.4945V79.667C75.4945 81.0373 74.9501 82.3514 73.9812 83.3204C73.0122 84.2893 71.6981 84.8337 70.3278 84.8337H49.6611C48.2908 84.8337 46.9767 84.2893 46.0077 83.3204C45.0388 82.3514 44.4945 81.0373 44.4945 79.667V61.5837H57.4111V53.8337C57.4111 49.0377 59.3163 44.4381 62.7076 41.0468C66.0989 37.6555 70.6985 35.7503 75.4945 35.7503H83.2445ZM43.2028 33.167C46.3027 33.1645 49.3579 33.9068 52.1111 35.3315C54.8642 36.7562 57.2348 38.8215 59.0231 41.3536C56.295 44.9416 54.821 49.3263 54.8278 53.8337V56.417H53.5361C48.3976 56.417 43.4695 54.3757 39.8359 50.7422C36.2024 47.1087 34.1611 42.1806 34.1611 37.042V33.167H43.2028Z" fill="black"/>
</svg>
