<svg width="119" height="119" viewBox="0 0 119 119" fill="none" xmlns="http://www.w3.org/2000/svg">
<circle cx="59.5" cy="59.5" r="59.5" fill="#FFD582"/>
<g clip-path="url(#clip0_851_3290)">
<path d="M39.675 35C37.1492 35 35.1 37.0576 35.1 39.5938V44.1875H30.525C29.6862 44.1875 29 44.8766 29 45.7188C29 46.5609 29.6862 47.25 30.525 47.25H54.925C55.7637 47.25 56.45 47.9391 56.45 48.7812C56.45 49.6234 55.7637 50.3125 54.925 50.3125H33.575C32.7362 50.3125 32.05 51.0016 32.05 51.8438C32.05 52.6859 32.7362 53.375 33.575 53.375H51.875C52.7137 53.375 53.4 54.0641 53.4 54.9062C53.4 55.7484 52.7137 56.4375 51.875 56.4375H30.525C29.6862 56.4375 29 57.1266 29 57.9688C29 58.8109 29.6862 59.5 30.525 59.5H48.825C49.6637 59.5 50.35 60.1891 50.35 61.0312C50.35 61.8734 49.6637 62.5625 48.825 62.5625H35.1V74.8125C35.1 79.8848 39.1984 84 44.25 84C49.3016 84 53.4 79.8848 53.4 74.8125H65.6C65.6 79.8848 69.6984 84 74.75 84C79.8016 84 83.9 79.8848 83.9 74.8125H86.95C88.637 74.8125 90 73.4439 90 71.75C90 70.0561 88.637 68.6875 86.95 68.6875V57.7104C86.95 56.0834 86.3114 54.5234 85.1677 53.375L77.8 45.9771C76.6562 44.8287 75.1027 44.1875 73.4823 44.1875H68.65V39.5938C68.65 37.0576 66.6008 35 64.075 35H39.675ZM80.85 57.7104V59.5H68.65V50.3125H73.4823L80.85 57.7104ZM44.25 70.2188C45.4634 70.2188 46.627 70.7027 47.485 71.5642C48.343 72.4257 48.825 73.5942 48.825 74.8125C48.825 76.0308 48.343 77.1993 47.485 78.0608C46.627 78.9223 45.4634 79.4062 44.25 79.4062C43.0366 79.4062 41.873 78.9223 41.015 78.0608C40.157 77.1993 39.675 76.0308 39.675 74.8125C39.675 73.5942 40.157 72.4257 41.015 71.5642C41.873 70.7027 43.0366 70.2188 44.25 70.2188ZM70.175 74.8125C70.175 73.5942 70.657 72.4257 71.515 71.5642C72.373 70.7027 73.5366 70.2188 74.75 70.2188C75.9634 70.2188 77.127 70.7027 77.985 71.5642C78.843 72.4257 79.325 73.5942 79.325 74.8125C79.325 76.0308 78.843 77.1993 77.985 78.0608C77.127 78.9223 75.9634 79.4062 74.75 79.4062C73.5366 79.4062 72.373 78.9223 71.515 78.0608C70.657 77.1993 70.175 76.0308 70.175 74.8125Z" fill="black"/>
</g>
<defs>
<clipPath id="clip0_851_3290">
<rect width="61" height="49" fill="white" transform="translate(29 35)"/>
</clipPath>
</defs>
</svg>
