<svg width="20" height="20" viewBox="0 0 20 20" fill="none" xmlns="http://www.w3.org/2000/svg">
<path d="M15.8343 6.26246L15.8343 6.26252L10.0003 12.0965L4.16636 6.26252L4.16641 6.26246L4.16016 6.25642C3.83011 5.93765 3.38805 5.76126 2.92921 5.76524C2.47036 5.76923 2.03144 5.95328 1.70698 6.27774C1.38251 6.60221 1.19847 7.04113 1.19448 7.49997C1.19049 7.95882 1.36689 8.40087 1.68566 8.73092L1.68561 8.73098L1.69175 8.73712L8.763 15.8084L8.76306 15.8084C9.09123 16.1365 9.53627 16.3208 10.0003 16.3208C10.4643 16.3208 10.9094 16.1365 11.2376 15.8084L11.2376 15.8084L18.3089 8.73712L18.3089 8.73707C18.637 8.40889 18.8213 7.96386 18.8213 7.49982C18.8213 7.03578 18.637 6.59074 18.3089 6.26257L18.3088 6.26246C17.9806 5.93439 17.5356 5.75008 17.0716 5.75008C16.6075 5.75008 16.1625 5.93439 15.8343 6.26246Z" fill="white" stroke="white"/>
</svg>
