<svg width="119" height="119" viewBox="0 0 119 119" fill="none" xmlns="http://www.w3.org/2000/svg">
<circle cx="59.5" cy="59.5" r="59.5" fill="#FFD582"/>
<g clip-path="url(#clip0_851_3298)">
<path d="M52.1333 36.7998C51.4791 36.7998 50.8517 37.0597 50.3891 37.5223C49.9265 37.9849 49.6667 38.6123 49.6667 39.2665H38.5667C35.8081 39.2619 33.1139 40.1002 30.8449 41.6692C28.5759 43.2381 26.8404 45.4628 25.8708 48.0454C24.9012 50.628 24.7438 53.4452 25.4195 56.1198C26.0953 58.7943 27.5721 61.1986 29.6521 63.0106C28.236 63.8911 27.0664 65.1164 26.2528 66.572C25.4392 68.0275 25.0082 69.6657 25 71.3331C25 76.7598 29.44 81.1998 34.8667 81.1998H74.3333C79.76 81.1998 84.2 76.7598 84.2 71.3331C84.2 68.9257 83.2824 66.7451 81.832 65.0333L92.5719 69.7841C93.0174 69.9878 93.499 70.1011 93.9887 70.1172C94.4784 70.1334 94.9664 70.0521 95.4244 69.8781C95.8824 69.7042 96.3013 69.441 96.6568 69.1039C97.0123 68.7667 97.2973 68.3623 97.4952 67.9142C97.6932 67.466 97.8001 66.983 97.8099 66.4931C97.8197 66.0033 97.7321 65.5164 97.5522 65.0607C97.3723 64.605 97.1037 64.1895 96.762 63.8384C96.4202 63.4874 96.0122 63.2076 95.5615 63.0155L86.6321 59.059L94.6735 57.7171C95.1529 57.6374 95.6119 57.4641 96.0243 57.207C96.4368 56.95 96.7945 56.6142 97.0772 56.2188C97.3598 55.8235 97.5618 55.3763 97.6717 54.9029C97.7815 54.4295 97.797 53.9391 97.7173 53.4597C97.6376 52.9803 97.4643 52.5212 97.2072 52.1088C96.9501 51.6964 96.6143 51.3386 96.219 51.056C95.8237 50.7733 95.3765 50.5713 94.9031 50.4615C94.4297 50.3516 93.9393 50.3361 93.4599 50.4158L82.9519 52.1671C80.5395 46.4297 74.5208 40.6675 64.4667 39.5131V39.2665C64.4667 38.6123 64.2068 37.9849 63.7442 37.5223C63.2816 37.0597 62.6542 36.7998 62 36.7998H52.1333ZM54.6 41.7331H59.5333V76.2665H54.6V66.3998V41.7331ZM71.8667 61.4665C73.1444 61.4665 74.1557 62.4383 74.284 63.6865L74.6589 63.0254C74.8197 62.7426 75.0348 62.4944 75.2919 62.2951C75.549 62.0958 75.843 61.9493 76.157 61.8641C76.4709 61.7788 76.7986 61.7565 77.1212 61.7985C77.4438 61.8404 77.7549 61.9457 78.0366 62.1084C78.3183 62.271 78.5651 62.4878 78.7627 62.7462C78.9603 63.0046 79.1048 63.2996 79.188 63.6141C79.2711 63.9286 79.2912 64.2564 79.2472 64.5787C79.2031 64.901 79.0957 65.2114 78.9312 65.4921L77.6584 67.7022C78.1668 68.1602 78.5728 68.7204 78.8499 69.3461C79.1271 69.9717 79.2691 70.6488 79.2667 71.3331C79.2667 74.1106 77.1108 76.2665 74.3333 76.2665H64.4667V66.3998H69.4V63.9331C69.4 62.5666 70.5001 61.4665 71.8667 61.4665ZM37.0373 61.8118C37.5179 61.7513 38.0057 61.8342 38.4393 62.0502C38.873 62.2661 39.2331 62.6054 39.4744 63.0254L40.4611 64.7422C40.6885 64.4883 40.9668 64.2851 41.2779 64.1458C41.5889 64.0064 41.9258 63.9339 42.2667 63.9331C43.6332 63.9331 44.7333 65.0333 44.7333 66.3998H49.6667V76.2665H34.8667C32.0892 76.2665 29.9333 74.1106 29.9333 71.3331C29.9333 68.5557 32.0892 66.3998 34.8667 66.3998H35.7251L35.2021 65.4921C34.9949 65.1403 34.8787 64.7424 34.8642 64.3343C34.8498 63.9263 34.9374 63.5211 35.1192 63.1556C35.301 62.79 35.5712 62.4756 35.9053 62.241C36.2394 62.0063 36.6268 61.8588 37.0324 61.8118" fill="black"/>
</g>
<defs>
<clipPath id="clip0_851_3298">
<rect width="74" height="74" fill="white" transform="translate(25 22)"/>
</clipPath>
</defs>
</svg>
