<svg width="119" height="119" viewBox="0 0 119 119" fill="none" xmlns="http://www.w3.org/2000/svg">
<circle cx="59.5" cy="59.5" r="59.5" fill="#FFD582"/>
<path d="M74.6657 82.8291L82.9491 74.6741L81.1232 72.8453L74.6657 79.2124L71.8803 76.3687L70.0516 78.212L74.6657 82.8291ZM43.7462 50.4657H74.2603V47.5491H43.7432L43.7462 50.4657ZM76.5003 89.5053C73.2512 89.5053 70.4949 88.3727 68.2316 86.1074C65.9663 83.8441 64.8337 81.0878 64.8337 77.8387C64.8337 74.5895 65.9663 71.8323 68.2316 69.567C70.4969 67.3017 73.2531 66.17 76.5003 66.172C79.7475 66.1739 82.5048 67.3056 84.772 69.567C87.0392 71.8284 88.1709 74.5856 88.167 77.8387C88.167 81.0859 87.0353 83.8421 84.772 86.1074C82.5048 88.3727 79.7475 89.5053 76.5003 89.5053ZM35.667 85.5766V41.3803C35.667 40.0737 36.1259 38.9614 37.0437 38.0437C37.9614 37.1259 39.0737 36.667 40.3803 36.667H77.6232C78.926 36.667 80.0373 37.1259 80.957 38.0437C81.8748 38.9614 82.3337 40.0737 82.3337 41.3803V58.717C80.5992 58.1473 78.822 57.8546 77.002 57.8391C75.182 57.8235 73.3882 58.0578 71.6207 58.542H43.7432V61.4587H65.0699C63.6077 62.4717 62.3185 63.6607 61.2024 65.0257C60.0863 66.3907 59.1666 67.8938 58.4432 69.5349H43.7462V72.4516H57.4837C57.2737 73.2371 57.1103 74.0295 56.9937 74.8287C56.877 75.6278 56.8177 76.462 56.8157 77.3312C56.8157 78.6631 56.9548 79.9844 57.2328 81.2949C57.5109 82.6055 57.9289 83.8684 58.487 85.0837L58.3878 85.1828L55.0774 82.7737L51.1516 85.5766L47.2257 82.7737L43.2999 85.5766L39.3712 82.7737L35.667 85.5766Z" fill="black"/>
</svg>
