<svg width="119" height="119" viewBox="0 0 119 119" fill="none" xmlns="http://www.w3.org/2000/svg">
<circle cx="59.5" cy="59.5" r="59.5" fill="#FFD582"/>
<path d="M48.7188 85.375C51.1005 85.375 53.0312 83.4442 53.0312 81.0625C53.0312 78.6808 51.1005 76.75 48.7188 76.75C46.337 76.75 44.4062 78.6808 44.4062 81.0625C44.4062 83.4442 46.337 85.375 48.7188 85.375Z" fill="black"/>
<path d="M78.9062 85.375C81.288 85.375 83.2188 83.4442 83.2188 81.0625C83.2188 78.6808 81.288 76.75 78.9062 76.75C76.5245 76.75 74.5938 78.6808 74.5938 81.0625C74.5938 83.4442 76.5245 85.375 78.9062 85.375Z" fill="black"/>
<path d="M86.5609 41.277C86.258 40.9065 85.8764 40.608 85.4437 40.4034C85.0111 40.1987 84.5383 40.0929 84.0597 40.0938H43.0438L42.2177 35.4066C42.1296 34.9073 41.8684 34.4551 41.48 34.1292C41.0915 33.8034 40.6007 33.6249 40.0938 33.625H31.4688C30.8969 33.625 30.3484 33.8522 29.9441 34.2566C29.5397 34.6609 29.3125 35.2094 29.3125 35.7812C29.3125 36.3531 29.5397 36.9016 29.9441 37.3059C30.3484 37.7103 30.8969 37.9375 31.4688 37.9375H38.2852L44.4386 72.8121C44.5267 73.3114 44.7879 73.7637 45.1763 74.0895C45.5647 74.4153 46.0555 74.5939 46.5625 74.5938H81.0625C81.6344 74.5938 82.1828 74.3666 82.5872 73.9622C82.9916 73.5578 83.2188 73.0094 83.2188 72.4375C83.2188 71.8656 82.9916 71.3172 82.5872 70.9128C82.1828 70.5084 81.6344 70.2812 81.0625 70.2812H48.3711L47.611 65.9688H80.1784C80.9262 65.9678 81.6507 65.7085 82.2293 65.2348C82.8079 64.7611 83.205 64.102 83.3535 63.3691L87.2348 43.9629C87.3283 43.4932 87.3164 43.0087 87.1998 42.5442C87.0833 42.0797 86.8651 41.6469 86.5609 41.277Z" fill="black"/>
</svg>
