<svg width="119" height="119" viewBox="0 0 119 119" fill="none" xmlns="http://www.w3.org/2000/svg">
<circle cx="59.5" cy="59.5" r="59.5" fill="#FFD582"/>
<path d="M73.2447 42.1473C72.9255 41.8946 72.5594 41.7076 72.1676 41.5972C71.7757 41.4867 71.3659 41.4549 70.9617 41.5036C70.5575 41.5523 70.167 41.6806 69.8126 41.8811C69.4583 42.0815 69.1471 42.3502 68.8972 42.6715L47.3138 70.4215L36.738 57.5332C36.4899 57.203 36.178 56.926 35.8209 56.7186C35.4637 56.5112 35.0685 56.3777 34.6587 56.326C34.2489 56.2743 33.833 56.3055 33.4355 56.4177C33.038 56.5298 32.6671 56.7207 32.3448 56.979C32.0225 57.2372 31.7553 57.5576 31.5592 57.9211C31.3631 58.2846 31.242 58.6837 31.2031 59.0949C31.1643 59.5061 31.2084 59.9209 31.3329 60.3147C31.4574 60.7085 31.6598 61.0733 31.928 61.3873L44.7855 77.359C45.0757 77.7167 45.4424 78.0049 45.8585 78.2023C46.2747 78.3997 46.7299 78.5014 47.1905 78.4998C47.6794 78.5217 48.1666 78.4268 48.6116 78.2231C49.0566 78.0193 49.4467 77.7126 49.7497 77.3282L73.8922 46.4948C74.1383 46.1681 74.3169 45.7956 74.4177 45.3991C74.5185 45.0027 74.5393 44.5901 74.4791 44.1855C74.4188 43.7808 74.2786 43.3923 74.0667 43.0423C73.8548 42.6924 73.5753 42.3882 73.2447 42.1473ZM88.6613 42.1473C88.3421 41.8946 87.9761 41.7076 87.5842 41.5972C87.1924 41.4867 86.7825 41.4549 86.3784 41.5036C85.9742 41.5523 85.5836 41.6806 85.2293 41.8811C84.8749 42.0815 84.5638 42.3502 84.3138 42.6715L62.7305 70.4215L60.8497 68.109L56.9647 73.104L60.3563 77.3282C60.6465 77.6859 61.0132 77.9741 61.4294 78.1715C61.8456 78.3689 62.3007 78.4706 62.7613 78.469C63.2245 78.4669 63.6812 78.3604 64.0975 78.1576C64.5139 77.9547 64.8792 77.6607 65.1663 77.2973L89.3088 46.464C89.5501 46.1382 89.7248 45.768 89.8229 45.3746C89.921 44.9812 89.9405 44.5723 89.8804 44.1714C89.8202 43.7704 89.6816 43.3853 89.4724 43.038C89.2632 42.6906 88.9876 42.388 88.6613 42.1473Z" fill="black"/>
<path d="M48.8559 63.2686L52.8334 58.2736L52.2168 57.5336C51.9733 57.1964 51.6642 56.9119 51.3079 56.6972C50.9517 56.4826 50.5557 56.3422 50.1437 56.2846C49.7318 56.227 49.3125 56.2533 48.911 56.362C48.5096 56.4707 48.1342 56.6595 47.8076 56.917C47.4909 57.1714 47.2275 57.486 47.0327 57.8425C46.838 58.1991 46.7156 58.5906 46.6726 58.9946C46.6296 59.3986 46.6669 59.8071 46.7823 60.1966C46.8977 60.5862 47.089 60.9491 47.3451 61.2645L48.8559 63.2686Z" fill="black"/>
</svg>
