<svg width="35" height="35" viewBox="0 0 35 35" fill="none" xmlns="http://www.w3.org/2000/svg">
<path d="M4.99996 7.2915H15.4166C15.9692 7.2915 16.4991 7.50661 16.8898 7.88949C17.2805 8.27238 17.5 8.79169 17.5 9.33317C17.5 9.87465 17.2805 10.394 16.8898 10.7768C16.4991 11.1597 15.9692 11.3748 15.4166 11.3748H4.99996C4.44742 11.3748 3.91752 11.1597 3.52682 10.7768C3.13612 10.394 2.91663 9.87465 2.91663 9.33317C2.91663 8.79169 3.13612 8.27238 3.52682 7.88949C3.91752 7.50661 4.44742 7.2915 4.99996 7.2915ZM19.5833 23.6248H30C30.5525 23.6248 31.0824 23.8399 31.4731 24.2228C31.8638 24.6057 32.0833 25.125 32.0833 25.6665C32.0833 26.208 31.8638 26.7273 31.4731 27.1102C31.0824 27.4931 30.5525 27.7082 30 27.7082H19.5833C19.0308 27.7082 18.5009 27.4931 18.1102 27.1102C17.7195 26.7273 17.5 26.208 17.5 25.6665C17.5 25.125 17.7195 24.6057 18.1102 24.2228C18.5009 23.8399 19.0308 23.6248 19.5833 23.6248ZM4.99996 15.4582H30C30.5525 15.4582 31.0824 15.6733 31.4731 16.0562C31.8638 16.439 32.0833 16.9584 32.0833 17.4998C32.0833 18.0413 31.8638 18.5606 31.4731 18.9435C31.0824 19.3264 30.5525 19.5415 30 19.5415H4.99996C4.44742 19.5415 3.91752 19.3264 3.52682 18.9435C3.13612 18.5606 2.91663 18.0413 2.91663 17.4998C2.91663 16.9584 3.13612 16.439 3.52682 16.0562C3.91752 15.6733 4.44742 15.4582 4.99996 15.4582Z" fill="black"/>
</svg>
