<svg width="51" height="51" viewBox="0 0 51 51" fill="none" xmlns="http://www.w3.org/2000/svg">
<g id="icon-solar">
<path id="Vector" d="M21.7008 37.4059C21.7008 42.1996 17.9717 46.0871 13.3675 46.0871C8.76335 46.0871 5.03418 42.1996 5.03418 37.4059C5.03418 34.4059 8.29668 30.4038 10.7383 27.8267C11.0745 27.4655 11.4814 27.1775 11.9337 26.9806C12.3861 26.7836 12.8742 26.682 13.3675 26.682C13.8609 26.682 14.3489 26.7836 14.8013 26.9806C15.2536 27.1775 15.6606 27.4655 15.9967 27.8267C18.4383 30.4038 21.7008 34.4059 21.7008 37.4059ZM46.7008 37.4059C46.7008 42.1996 42.9717 46.0871 38.3675 46.0871C33.7633 46.0871 30.0342 42.1996 30.0342 37.4059C30.0342 34.4059 33.2967 30.4038 35.7383 27.8267C36.0745 27.4655 36.4814 27.1775 36.9337 26.9806C37.3861 26.7836 37.8741 26.682 38.3675 26.682C38.8609 26.682 39.3489 26.7836 39.8013 26.9806C40.2536 27.1775 40.6606 27.4655 40.9967 27.8267C43.4383 30.4038 46.7008 34.4059 46.7008 37.4059ZM34.2008 16.5725C34.2008 21.3663 30.4717 25.2538 25.8675 25.2538C21.2633 25.2538 17.5342 21.3663 17.5342 16.5725C17.5342 13.5725 20.7967 9.57044 23.2383 6.99335C23.5745 6.6322 23.9814 6.34417 24.4337 6.14722C24.8861 5.95028 25.3742 5.84863 25.8675 5.84863C26.3609 5.84863 26.8489 5.95028 27.3013 6.14722C27.7536 6.34417 28.1606 6.6322 28.4967 6.99335C30.9383 9.57044 34.2008 13.5725 34.2008 16.5725Z" fill="black"/>
</g>
</svg>
