<svg width="66" height="66" viewBox="0 0 66 66" fill="none" xmlns="http://www.w3.org/2000/svg">
    <g id="svg">
        <g clip-path="url(#clip0_79_1476)">
            <path d="M51.029 18.4383C51.5078 17.9268 52.1638 17.6174 52.8631 17.5732C53.5623 17.5291 54.252 17.7534 54.7914 18.2005C55.3309 18.6476 55.6793 19.2838 55.7656 19.9791C55.8518 20.6744 55.6695 21.3764 55.2557 21.9418L55.0357 22.2058L22.132 57.1941C21.6531 57.7055 20.9971 58.0149 20.2979 58.0591C19.5987 58.1033 18.9089 57.8789 18.3695 57.4318C17.8301 56.9847 17.4817 56.3486 17.3954 55.6533C17.3091 54.958 17.4915 54.256 17.9052 53.6906L18.1252 53.4266L51.029 18.4383ZM33.9735 9.32205C34.3251 8.71602 34.8948 8.26705 35.5662 8.06683C36.2377 7.8666 36.9602 7.93022 37.5863 8.24468C38.2125 8.55915 38.6949 9.10075 38.9353 9.7589C39.1756 10.417 39.1556 11.1421 38.8795 11.786L38.7365 12.072L15.3615 52.5603C15.0129 53.1725 14.4428 53.6275 13.7686 53.8317C13.0944 54.0358 12.3676 53.9734 11.738 53.6574C11.1084 53.3414 10.6241 52.7958 10.385 52.1332C10.1459 51.4706 10.1701 50.7415 10.4527 50.0963L10.5985 49.8103L33.9735 9.32205Z" fill="black"/>
        </g>
        <defs>
            <clipPath id="clip0_79_1476">
                <rect width="66" height="66" fill="white"/>
            </clipPath>
        </defs>
    </g>
</svg>
