<svg width="66" height="66" viewBox="0 0 66 66" fill="none" xmlns="http://www.w3.org/2000/svg">
    <g id="svg">
        <g clip-path="url(#clip0_79_1466)">
            <path
                d="M24.2 13.2002C23.6165 13.2002 23.0569 13.432 22.6444 13.8446C22.2318 14.2571 22 14.8167 22 15.4002H12.1C9.63962 15.3961 7.23671 16.1438 5.21302 17.5431C3.18933 18.9425 1.64147 20.9267 0.776676 23.2301C-0.0881137 25.5335 -0.228544 28.0461 0.374189 30.4315C0.976922 32.8169 2.29405 34.9613 4.1492 36.5774C2.88619 37.3627 1.84305 38.4555 1.11739 39.7537C0.391727 41.0519 0.00727262 42.513 0 44.0002C0 48.8402 3.96 52.8002 8.8 52.8002H44C48.84 52.8002 52.8 48.8402 52.8 44.0002C52.8 41.853 51.9816 39.9082 50.688 38.3814L60.2668 42.6186C60.6642 42.8003 61.0937 42.9013 61.5304 42.9157C61.9672 42.9301 62.4024 42.8577 62.8109 42.7025C63.2194 42.5474 63.593 42.3126 63.9101 42.0119C64.2272 41.7112 64.4813 41.3506 64.6579 40.9508C64.8344 40.5511 64.9298 40.1203 64.9386 39.6834C64.9473 39.2465 64.8692 38.8123 64.7087 38.4058C64.5483 37.9994 64.3087 37.6288 64.0039 37.3157C63.6991 37.0026 63.3352 36.7531 62.9332 36.5818L54.9692 33.053L62.1412 31.8562C62.5688 31.7851 62.9782 31.6305 63.346 31.4012C63.7139 31.1719 64.0329 30.8724 64.285 30.5198C64.5371 30.1672 64.7173 29.7684 64.8153 29.3462C64.9132 28.924 64.9271 28.4866 64.856 28.059C64.7849 27.6314 64.6303 27.222 64.401 26.8542C64.1718 26.4863 63.8723 26.1673 63.5197 25.9152C63.1671 25.6631 62.7682 25.4829 62.346 25.3849C61.9238 25.287 61.4864 25.2731 61.0588 25.3442L51.6868 26.9062C49.5352 21.789 44.1672 16.6498 35.2 15.6202V15.4002C35.2 14.8167 34.9682 14.2571 34.5556 13.8446C34.1431 13.432 33.5835 13.2002 33 13.2002H24.2ZM26.4 17.6002H30.8V48.4002H26.4V39.6002V17.6002ZM41.8 35.2002C42.9396 35.2002 43.8416 36.067 43.956 37.1802L44.2904 36.5906C44.4338 36.3384 44.6257 36.117 44.855 35.9392C45.0843 35.7615 45.3465 35.6308 45.6265 35.5548C45.9065 35.4788 46.1987 35.4589 46.4865 35.4963C46.7742 35.5337 47.0517 35.6276 47.3029 35.7727C47.5542 35.9178 47.7743 36.1111 47.9505 36.3416C48.1268 36.5721 48.2557 36.8351 48.3298 37.1156C48.404 37.3961 48.4219 37.6885 48.3826 37.976C48.3433 38.2634 48.2475 38.5403 48.1008 38.7906L46.9656 40.7618C47.419 41.1703 47.7812 41.6699 48.0283 42.2279C48.2755 42.786 48.4021 43.3899 48.4 44.0002C48.4 46.4774 46.4772 48.4002 44 48.4002H35.2V39.6002H39.6V37.4002C39.6 36.1814 40.5812 35.2002 41.8 35.2002ZM10.736 35.5082C11.1647 35.4542 11.5997 35.5282 11.9864 35.7208C12.3732 35.9134 12.6944 36.216 12.9096 36.5906L13.7896 38.1218C13.9925 37.8954 14.2407 37.7141 14.5181 37.5898C14.7955 37.4655 15.096 37.4009 15.4 37.4002C16.6188 37.4002 17.6 38.3814 17.6 39.6002H22V48.4002H8.8C6.3228 48.4002 4.4 46.4774 4.4 44.0002C4.4 41.523 6.3228 39.6002 8.8 39.6002H9.5656L9.0992 38.7906C8.91434 38.4769 8.81076 38.1219 8.79784 37.758C8.78493 37.3941 8.86309 37.0327 9.02524 36.7067C9.18739 36.3807 9.42839 36.1003 9.72637 35.891C10.0244 35.6817 10.3699 35.5501 10.7316 35.5082"
                fill="black"/>
        </g>
        <defs>
            <clipPath id="clip0_79_1466">
                <rect width="66" height="66" fill="white"/>
            </clipPath>
        </defs>
    </g>
</svg>
