<svg width="66" height="66" viewBox="0 0 66 66" fill="none" xmlns="http://www.w3.org/2000/svg">
<g id="svg">
    <path d="M33.1924 23.9529C37.7487 23.9529 41.4424 21.8475 41.4424 19.2504C41.4424 16.6532 37.7487 14.5479 33.1924 14.5479C28.636 14.5479 24.9424 16.6532 24.9424 19.2504C24.9424 21.8475 28.636 23.9529 33.1924 23.9529Z" fill="black"/>
    <path d="M33.1924 60.5C45.5124 60.5 55.1924 54.45 55.1924 46.75V19.25C55.1924 11.55 45.5124 5.5 33.1924 5.5C20.8724 5.5 11.1924 11.55 11.1924 19.25V46.75C11.1924 54.45 20.8449 60.5 33.1924 60.5ZM33.1924 11C42.8999 11 49.6924 15.345 49.6924 19.25C49.6154 20.0985 49.3424 20.9175 48.8949 21.6425C47.0249 24.3925 41.9374 27.1425 35.1449 27.4725H31.3224C24.4199 27.0325 19.2499 24.4475 17.4624 21.56C17.0762 20.9181 16.815 20.209 16.6924 19.47V19.25C16.6924 15.345 23.4574 11 33.1924 11Z" fill="black"/>
</g>
</svg>
