<svg width="40" height="40" viewBox="0 0 40 40" fill="none" xmlns="http://www.w3.org/2000/svg">
<g id="svg">
<path id="Vector" d="M26.25 3.33301C27.2446 3.33301 28.1984 3.7281 28.9016 4.43136C29.6049 5.13462 30 6.08845 30 7.08301V32.9163C30 33.9109 29.6049 34.8647 28.9016 35.568C28.1984 36.2713 27.2446 36.6663 26.25 36.6663H13.75C12.7554 36.6663 11.8016 36.2713 11.0983 35.568C10.3951 34.8647 10 33.9109 10 32.9163V7.08301C10 6.08845 10.3951 5.13462 11.0983 4.43136C11.8016 3.7281 12.7554 3.33301 13.75 3.33301H26.25ZM22.0833 29.9997H17.9167C17.5851 29.9997 17.2672 30.1314 17.0328 30.3658C16.7984 30.6002 16.6667 30.9182 16.6667 31.2497C16.6667 31.5812 16.7984 31.8991 17.0328 32.1336C17.2672 32.368 17.5851 32.4997 17.9167 32.4997H22.0833C22.4149 32.4997 22.7328 32.368 22.9672 32.1336C23.2016 31.8991 23.3333 31.5812 23.3333 31.2497C23.3333 30.9182 23.2016 30.6002 22.9672 30.3658C22.7328 30.1314 22.4149 29.9997 22.0833 29.9997Z" fill="black"/>
</g>
</svg>
