<svg width="60" height="60" viewBox="0 0 60 60" fill="none" xmlns="http://www.w3.org/2000/svg">
<g id="icon-exit">
<path id="Vector" fill-rule="evenodd" clip-rule="evenodd" d="M24.2675 6.02235C22.5 7.58985 22.5 10.4573 22.5 16.1898V43.8098C22.5 49.5424 22.5 52.4099 24.2675 53.9774C26.035 55.5448 28.7375 55.0749 34.1425 54.1324L39.9675 53.1174C45.9525 52.0724 48.945 51.5499 50.7225 49.3549C52.5 47.1574 52.5 43.9823 52.5 37.6298V22.3699C52.5 16.0198 52.5 12.8449 50.725 10.6473C48.945 8.45235 45.95 7.92985 39.965 6.88735L34.145 5.86985C28.74 4.92735 26.0375 4.45735 24.27 6.02485M30 25.4223C31.035 25.4223 31.875 26.2999 31.875 27.3824V32.6173C31.875 33.6999 31.035 34.5774 30 34.5774C28.965 34.5774 28.125 33.6999 28.125 32.6173V27.3824C28.125 26.2999 28.965 25.4223 30 25.4223Z"/>
<path id="Vector_2" d="M18.8675 11.25C13.7225 11.2575 11.04 11.37 9.33 13.08C7.5 14.91 7.5 17.855 7.5 23.75V36.25C7.5 42.1425 7.5 45.0875 9.33 46.92C11.04 48.6275 13.7225 48.7425 18.8675 48.75C18.75 47.19 18.75 45.39 18.75 43.4425V16.5575C18.75 14.6075 18.75 12.8075 18.8675 11.25Z"/>
</g>
</svg>
