<svg width="40" height="40" viewBox="0 0 40 40" fill="none" xmlns="http://www.w3.org/2000/svg">
<path d="M21.6199 4.24219C23.3925 4.24691 24.2923 4.25637 25.0691 4.27843L25.3747 4.28946C25.7277 4.30206 26.0759 4.31782 26.4966 4.33673C28.1731 4.41552 29.3171 4.68024 30.3208 5.06944C31.3607 5.46967 32.2368 6.01172 33.1129 6.88625C33.9141 7.67394 34.5341 8.62677 34.9297 9.67842C35.3188 10.6822 35.5836 11.8261 35.6623 13.5043C35.6812 13.9234 35.697 14.2717 35.7096 14.6262L35.7191 14.9319C35.7427 15.7071 35.7522 16.6069 35.7553 18.3796L35.7569 19.555V21.6192C35.7608 22.7686 35.7487 23.9179 35.7206 25.0669L35.7112 25.3726C35.6986 25.7271 35.6828 26.0754 35.6639 26.4945C35.5851 28.1727 35.3173 29.3151 34.9297 30.3204C34.5352 31.3726 33.9151 32.3257 33.1129 33.1125C32.325 33.9135 31.3723 34.5335 30.3208 34.9294C29.3171 35.3186 28.1731 35.5833 26.4966 35.6621C26.1227 35.6797 25.7488 35.6954 25.3747 35.7093L25.0691 35.7188C24.2923 35.7408 23.3925 35.7519 21.6199 35.755L20.4445 35.7566H18.3819C17.2321 35.7606 16.0822 35.7485 14.9327 35.7204L14.6271 35.7109C14.253 35.6967 13.879 35.6805 13.5052 35.6621C11.8286 35.5833 10.6847 35.3186 9.67943 34.9294C8.62793 34.5344 7.67551 33.9143 6.8889 33.1125C6.08695 32.3251 5.46642 31.3723 5.07057 30.3204C4.68138 29.3166 4.41667 28.1727 4.33788 26.4945C4.32033 26.1206 4.30457 25.7466 4.29061 25.3726L4.28273 25.0669C4.2537 23.9179 4.24056 22.7686 4.24334 21.6192V18.3796C4.23894 17.2302 4.2505 16.0809 4.27801 14.9319L4.28904 14.6262C4.30164 14.2717 4.3174 13.9234 4.33631 13.5043C4.41509 11.8261 4.6798 10.6837 5.069 9.67842C5.46467 8.62569 6.08644 7.67257 6.89048 6.88625C7.67689 6.08495 8.62868 5.46493 9.67943 5.06944C10.6847 4.68024 11.8271 4.41552 13.5052 4.33673C13.9243 4.31782 14.2741 4.30206 14.6271 4.28946L14.9327 4.28C16.0817 4.25201 17.231 4.23993 18.3803 4.24376L21.6199 4.24219ZM20.0001 12.1208C17.9106 12.1208 15.9067 12.9509 14.4293 14.4284C12.9518 15.9059 12.1217 17.9099 12.1217 19.9994C12.1217 22.0889 12.9518 24.0929 14.4293 25.5704C15.9067 27.0479 17.9106 27.878 20.0001 27.878C22.0896 27.878 24.0935 27.0479 25.571 25.5704C27.0485 24.0929 27.8785 22.0889 27.8785 19.9994C27.8785 17.9099 27.0485 15.9059 25.571 14.4284C24.0935 12.9509 22.0896 12.1208 20.0001 12.1208ZM20.0001 15.2722C20.6209 15.2721 21.2356 15.3943 21.8091 15.6318C22.3827 15.8692 22.9038 16.2173 23.3429 16.6562C23.7819 17.0951 24.1302 17.6162 24.3678 18.1897C24.6055 18.7631 24.7278 19.3778 24.7279 19.9986C24.728 20.6194 24.6059 21.2341 24.3684 21.8077C24.1309 22.3812 23.7828 22.9024 23.344 23.3414C22.9051 23.7805 22.3841 24.1288 21.8106 24.3664C21.2371 24.6041 20.6224 24.7265 20.0017 24.7266C18.748 24.7266 17.5457 24.2285 16.6592 23.342C15.7727 22.4555 15.2747 21.2531 15.2747 19.9994C15.2747 18.7457 15.7727 17.5433 16.6592 16.6568C17.5457 15.7703 18.748 15.2722 20.0017 15.2722M28.274 9.75721C27.7516 9.75721 27.2506 9.96473 26.8813 10.3341C26.5119 10.7035 26.3044 11.2045 26.3044 11.7269C26.3044 12.2492 26.5119 12.7502 26.8813 13.1196C27.2506 13.489 27.7516 13.6965 28.274 13.6965C28.7964 13.6965 29.2973 13.489 29.6667 13.1196C30.0361 12.7502 30.2436 12.2492 30.2436 11.7269C30.2436 11.2045 30.0361 10.7035 29.6667 10.3341C29.2973 9.96473 28.7964 9.75721 28.274 9.75721Z" fill="black"/>
</svg>
