<svg width="60" height="60" viewBox="0 0 60 60" fill="none" xmlns="http://www.w3.org/2000/svg">
    <g id="svg">
        <path fill-rule="evenodd" clip-rule="evenodd" d="M23.5121 7.24206C25.2506 5.76066 27.4438 4.91904 29.7271 4.85719C32.0103 4.79533 34.2459 5.51696 36.0621 6.90206L36.4871 7.24206L37.4271 8.04206C38.1113 8.62614 38.9404 9.0148 39.8271 9.16706L40.2721 9.22206L41.5046 9.32206C43.7877 9.50424 45.9392 10.4647 47.5992 12.0428C49.2592 13.6209 50.3272 15.721 50.6246 17.9921L50.6771 18.4921L50.7771 19.7271C50.8479 20.6229 51.1588 21.483 51.6771 22.2171L51.9521 22.5721L52.7571 23.5121C54.2385 25.2506 55.0801 27.4438 55.1419 29.7271C55.2038 32.0103 54.4822 34.2459 53.0971 36.0621L52.7571 36.4871L51.9546 37.4271C51.3705 38.1113 50.9818 38.9404 50.8296 39.8271L50.7746 40.2721L50.6771 41.5046C50.4949 43.7877 49.5345 45.9392 47.9564 47.5992C46.3782 49.2592 44.2781 50.3272 42.0071 50.6246L41.5046 50.6771L40.2721 50.7771C39.3763 50.8479 38.5161 51.1588 37.7821 51.6771L37.4271 51.9546L36.4846 52.7546C34.7463 54.2363 32.5532 55.0784 30.27 55.1407C27.9868 55.203 25.751 54.4818 23.9346 53.0971L23.5121 52.7571L22.5721 51.9546C21.8878 51.3705 21.0587 50.9818 20.1721 50.8296L19.7271 50.7771L18.4946 50.6771C16.2114 50.4949 14.0599 49.5345 12.3999 47.9564C10.7399 46.3782 9.67194 44.2781 9.37456 42.0071L9.32206 41.5071L9.22206 40.2721C9.15126 39.3763 8.84036 38.5161 8.32206 37.7821L8.04456 37.4271L7.24206 36.4846C5.76066 34.7461 4.91904 32.5528 4.85719 30.2696C4.79533 27.9863 5.51696 25.7507 6.90206 23.9346L7.24206 23.5121L8.04206 22.5721C8.62614 21.8878 9.0148 21.0587 9.16706 20.1721L9.22206 19.7271L9.32206 18.4946C9.50424 16.2114 10.4647 14.0599 12.0428 12.3999C13.6209 10.7399 15.721 9.67194 17.9921 9.37456L18.4921 9.32206L19.7271 9.22206C20.6229 9.15126 21.483 8.84036 22.2171 8.32206L22.5721 8.04456L23.5121 7.24206ZM36.2496 32.4996C35.255 32.4996 34.3012 32.8947 33.5979 33.5979C32.8947 34.3012 32.4996 35.255 32.4996 36.2496C32.4996 37.2441 32.8947 38.198 33.5979 38.9012C34.3012 39.6045 35.255 39.9996 36.2496 39.9996C37.2441 39.9996 38.198 39.6045 38.9012 38.9012C39.6045 38.198 39.9996 37.2441 39.9996 36.2496C39.9996 35.255 39.6045 34.3012 38.9012 33.5979C38.198 32.8947 37.2441 32.4996 36.2496 32.4996ZM35.7321 20.7321L20.7321 35.7321C20.4933 35.9627 20.3028 36.2385 20.1718 36.5436C20.0408 36.8486 19.9718 37.1766 19.9689 37.5086C19.9661 37.8405 20.0293 38.1697 20.155 38.4769C20.2807 38.7842 20.4663 39.0633 20.7011 39.298C20.9358 39.5328 21.2149 39.7184 21.5222 39.8441C21.8294 39.9698 22.1586 40.0331 22.4906 40.0302C22.8225 40.0273 23.1506 39.9583 23.4556 39.8273C23.7606 39.6963 24.0364 39.5058 24.2671 39.2671L39.2671 24.2671C39.7225 23.7956 39.9744 23.1641 39.9688 22.5086C39.9631 21.8531 39.7001 21.226 39.2366 20.7625C38.7731 20.299 38.1461 20.0361 37.4906 20.0304C36.8351 20.0247 36.2036 20.2767 35.7321 20.7321ZM23.7496 19.9996C22.755 19.9996 21.8012 20.3947 21.0979 21.0979C20.3947 21.8012 19.9996 22.755 19.9996 23.7496C19.9996 24.7441 20.3947 25.698 21.0979 26.4012C21.8012 27.1045 22.755 27.4996 23.7496 27.4996C24.7441 27.4996 25.698 27.1045 26.4012 26.4012C27.1045 25.698 27.4996 24.7441 27.4996 23.7496C27.4996 22.755 27.1045 21.8012 26.4012 21.0979C25.698 20.3947 24.7441 19.9996 23.7496 19.9996Z"/>
    </g>
</svg>
