<svg width="60" height="60" viewBox="0 0 60 60" fill="none" xmlns="http://www.w3.org/2000/svg">
<g id="icon-book">
<path id="Vector" d="M15.75 51C14.4902 51 13.282 50.5575 12.3912 49.7698C11.5004 48.9822 11 47.9139 11 46.8V13.2C11 12.0861 11.5004 11.0178 12.3912 10.2302C13.282 9.4425 14.4902 9 15.75 9H30V23.7L35.9375 20.55L41.875 23.7V9H44.25C45.5098 9 46.718 9.4425 47.6088 10.2302C48.4996 11.0178 49 12.0861 49 13.2V46.8C49 47.9139 48.4996 48.9822 47.6088 49.7698C46.718 50.5575 45.5098 51 44.25 51H15.75Z"/>
</g>
</svg>
