<svg width="60" height="60" viewBox="0 0 60 60" fill="none" xmlns="http://www.w3.org/2000/svg">
<g id="icon-order-list">
<path id="Vector" fill-rule="evenodd" clip-rule="evenodd" d="M11.6743 9.62012C10 11.2402 10 13.8446 10 19.0588V43.9412C10 49.1554 10 51.7598 11.6743 53.3799C13.3486 55 16.04 55 21.4286 55H38.5714C43.96 55 46.6514 55 48.3257 53.3799C50 51.7598 50 49.1554 50 43.9412V19.0588C50 13.8446 50 11.2402 48.3257 9.62012C46.6514 8 43.96 8 38.5714 8H21.4286C16.04 8 13.3486 8 11.6743 9.62012ZM21.4286 19.0588C20.6708 19.0588 19.9441 19.3501 19.4083 19.8686C18.8724 20.3871 18.5714 21.0903 18.5714 21.8235C18.5714 22.5568 18.8724 23.26 19.4083 23.7785C19.9441 24.297 20.6708 24.5882 21.4286 24.5882H38.5714C39.3292 24.5882 40.0559 24.297 40.5917 23.7785C41.1276 23.26 41.4286 22.5568 41.4286 21.8235C41.4286 21.0903 41.1276 20.3871 40.5917 19.8686C40.0559 19.3501 39.3292 19.0588 38.5714 19.0588H21.4286ZM21.4286 30.1176C20.6708 30.1176 19.9441 30.4089 19.4083 30.9274C18.8724 31.4459 18.5714 32.1491 18.5714 32.8824C18.5714 33.6156 18.8724 34.3188 19.4083 34.8373C19.9441 35.3558 20.6708 35.6471 21.4286 35.6471H38.5714C39.3292 35.6471 40.0559 35.3558 40.5917 34.8373C41.1276 34.3188 41.4286 33.6156 41.4286 32.8824C41.4286 32.1491 41.1276 31.4459 40.5917 30.9274C40.0559 30.4089 39.3292 30.1176 38.5714 30.1176H21.4286ZM21.4286 41.1765C20.6708 41.1765 19.9441 41.4677 19.4083 41.9862C18.8724 42.5047 18.5714 43.2079 18.5714 43.9412C18.5714 44.6744 18.8724 45.3776 19.4083 45.8961C19.9441 46.4146 20.6708 46.7059 21.4286 46.7059H32.8571C33.6149 46.7059 34.3416 46.4146 34.8774 45.8961C35.4133 45.3776 35.7143 44.6744 35.7143 43.9412C35.7143 43.2079 35.4133 42.5047 34.8774 41.9862C34.3416 41.4677 33.6149 41.1765 32.8571 41.1765H21.4286Z" />
</g>
</svg>
