<svg width="24" height="24" viewBox="0 0 24 24" fill="none" xmlns="http://www.w3.org/2000/svg">
<g id="icon-add">
<path id="Vector" fill-rule="evenodd" clip-rule="evenodd" d="M6.90715 3.28092C10.292 2.90636 13.708 2.90636 17.0928 3.28092C18.967 3.49062 20.479 4.964 20.6989 6.8415C21.1004 10.2688 21.1004 13.7311 20.6989 17.1584C20.479 19.0359 18.967 20.5093 17.0928 20.719C13.708 21.0937 10.292 21.0937 6.90715 20.719C5.03302 20.5093 3.52103 19.0359 3.30112 17.1584C2.89963 13.7315 2.89963 10.2695 3.30112 6.84259C3.41236 5.93046 3.82888 5.08256 4.48318 4.4363C5.13749 3.79004 5.99123 3.3833 6.90605 3.28201M12 6.5466C12.2176 6.5466 12.4263 6.63291 12.5802 6.78653C12.7341 6.94015 12.8205 7.1485 12.8205 7.36576V11.1808H16.6421C16.8597 11.1808 17.0684 11.2671 17.2223 11.4207C17.3762 11.5744 17.4626 11.7827 17.4626 12C17.4626 12.2172 17.3762 12.4256 17.2223 12.5792C17.0684 12.7328 16.8597 12.8191 16.6421 12.8191H12.8205V16.6342C12.8205 16.8514 12.7341 17.0598 12.5802 17.2134C12.4263 17.367 12.2176 17.4533 12 17.4533C11.7824 17.4533 11.5737 17.367 11.4198 17.2134C11.2659 17.0598 11.1795 16.8514 11.1795 16.6342V12.8191H7.3579C7.14028 12.8191 6.93157 12.7328 6.77769 12.5792C6.6238 12.4256 6.53735 12.2172 6.53735 12C6.53735 11.7827 6.6238 11.5744 6.77769 11.4207C6.93157 11.2671 7.14028 11.1808 7.3579 11.1808H11.1795V7.36576C11.1795 7.1485 11.2659 6.94015 11.4198 6.78653C11.5737 6.63291 11.7824 6.5466 12 6.5466Z" fill="white"/>
</g>
</svg>
