<svg width="35" height="35" viewBox="0 0 35 35" fill="none" xmlns="http://www.w3.org/2000/svg">
<path id="icon-acc" d="M17.5 18.9583C18.9097 18.9583 20.1128 18.4601 21.1094 17.4635C22.1059 16.467 22.6042 15.2639 22.6042 13.8542C22.6042 12.4444 22.1059 11.2413 21.1094 10.2448C20.1128 9.24826 18.9097 8.75 17.5 8.75C16.0903 8.75 14.8872 9.24826 13.8906 10.2448C12.8941 11.2413 12.3958 12.4444 12.3958 13.8542C12.3958 15.2639 12.8941 16.467 13.8906 17.4635C14.8872 18.4601 16.0903 18.9583 17.5 18.9583ZM7.29167 30.625C6.48958 30.625 5.80319 30.3397 5.2325 29.769C4.66181 29.1983 4.37597 28.5114 4.375 27.7083V7.29167C4.375 6.48958 4.66083 5.80319 5.2325 5.2325C5.80417 4.66181 6.49056 4.37597 7.29167 4.375H27.7083C28.5104 4.375 29.1973 4.66083 29.769 5.2325C30.3406 5.80417 30.626 6.49056 30.625 7.29167V27.7083C30.625 28.5104 30.3397 29.1973 29.769 29.769C29.1983 30.3406 28.5114 30.626 27.7083 30.625H7.29167ZM7.29167 27.7083H27.7083V26.0313C26.3958 24.7431 24.8709 23.7285 23.1335 22.9877C21.3962 22.2469 19.5183 21.876 17.5 21.875C15.4817 21.874 13.6038 22.2449 11.8665 22.9877C10.1291 23.7305 8.60417 24.745 7.29167 26.0313V27.7083Z" fill="black"/>
</svg>
