<svg width="40" height="40" viewBox="0 0 40 40" fill="none" xmlns="http://www.w3.org/2000/svg">
<g id="svg">
<path id="Vector" d="M27.0003 7.87585C29.1119 9.09505 30.8684 10.8446 32.0961 12.9513C33.3237 15.058 33.9798 17.4487 33.9995 19.8869C34.0192 22.3251 33.4018 24.7262 32.2084 26.8524C31.0149 28.9787 29.2868 30.7563 27.1952 32.0095C25.1036 33.2626 22.7209 33.9478 20.2831 33.9971C17.8453 34.0465 15.4369 33.4583 13.2963 32.2908C11.1556 31.1233 9.35706 29.417 8.07856 27.3408C6.80006 25.2646 6.08597 22.8904 6.007 20.4534L6 19.9998L6.007 19.5462C6.08541 17.1284 6.78898 14.7722 8.04912 12.7072C9.30926 10.6423 11.083 8.93908 13.1973 7.76368C15.3117 6.58829 17.6945 5.9808 20.1136 6.00046C22.5326 6.02012 24.9053 6.66625 27.0003 7.87585ZM20.0002 11.5998C19.6573 11.5999 19.3263 11.7258 19.07 11.9536C18.8138 12.1815 18.6501 12.4955 18.61 12.836L18.6002 12.9998V19.9998L18.6128 20.1832C18.6447 20.4261 18.7398 20.6564 18.8886 20.851L19.0104 20.991L23.2104 25.191L23.342 25.3058C23.5875 25.4963 23.8895 25.5997 24.2002 25.5997C24.511 25.5997 24.8129 25.4963 25.0584 25.3058L25.19 25.1896L25.3062 25.058C25.4967 24.8125 25.6001 24.5106 25.6001 24.1998C25.6001 23.8891 25.4967 23.5872 25.3062 23.3416L25.19 23.21L21.4002 19.4188V12.9998L21.3904 12.836C21.3503 12.4955 21.1866 12.1815 20.9303 11.9536C20.6741 11.7258 20.3431 11.5999 20.0002 11.5998Z" fill="black"/>
</g>
</svg>
