<svg width="66" height="66" viewBox="0 0 66 66" fill="none" xmlns="http://www.w3.org/2000/svg">
<g id="svg">
    <path d="M22 55.6875C17.5083 53.9458 13.6354 51.3682 10.3813 47.9545C7.12708 44.5408 5.5 40.4727 5.5 35.75C5.5 34.9708 5.764 34.3182 6.292 33.792C6.82 33.2658 7.47267 33.0018 8.25 33H11V13.475C11 12.7875 11.2292 12.1917 11.6875 11.6875C12.1458 11.1833 12.7188 10.8854 13.4062 10.7938L58.2312 5.775C58.8729 5.68333 59.4119 5.84375 59.8483 6.25625C60.2846 6.66875 60.5018 7.19583 60.5 7.8375C60.5 8.34167 60.3167 8.78808 59.95 9.17675C59.5833 9.56542 59.1479 9.78358 58.6438 9.83125L28.875 13.2V17.875H58.4375C59.0333 17.875 59.5265 18.0693 59.917 18.458C60.3075 18.8467 60.5018 19.3398 60.5 19.9375C60.4982 20.5352 60.3029 21.0283 59.9143 21.417C59.5256 21.8057 59.0333 22 58.4375 22H28.875V33H57.75C58.5292 33 59.1827 33.264 59.7107 33.792C60.2387 34.32 60.5018 34.9727 60.5 35.75C60.5 40.4708 58.8729 44.539 55.6188 47.9545C52.3646 51.37 48.4917 53.9477 44 55.6875V57.75C44 58.5292 43.736 59.1827 43.208 59.7107C42.68 60.2387 42.0273 60.5018 41.25 60.5H24.75C23.9708 60.5 23.3182 60.236 22.792 59.708C22.2658 59.18 22.0018 58.5273 22 57.75V55.6875ZM22 17.875H24.75V13.6813L22 13.9562V17.875ZM15.125 17.875H17.875V14.4375L15.125 14.7125V17.875ZM22 33H24.75V22H22V33ZM15.125 33H17.875V22H15.125V33Z" fill="black"/>
</g>
</svg>
