<svg width="60" height="60" viewBox="0 0 60 60" fill="none" xmlns="http://www.w3.org/2000/svg">
<g id="icon-del">
<path id="Vector" d="M12.8571 47.8889C12.8571 50.7 15.4286 53 18.5714 53H41.4286C44.5714 53 47.1429 50.7 47.1429 47.8889V22.3333C47.1429 19.5222 44.5714 17.2222 41.4286 17.2222H18.5714C15.4286 17.2222 12.8571 19.5222 12.8571 22.3333V47.8889ZM47.1429 9.55556H40L37.9714 7.74111C37.4571 7.28111 36.7143 7 35.9714 7H24.0286C23.2857 7 22.5429 7.28111 22.0286 7.74111L20 9.55556H12.8571C11.2857 9.55556 10 10.7056 10 12.1111C10 13.5167 11.2857 14.6667 12.8571 14.6667H47.1429C48.7143 14.6667 50 13.5167 50 12.1111C50 10.7056 48.7143 9.55556 47.1429 9.55556Z"/>
</g>
</svg>
