<svg width="51" height="51" viewBox="0 0 51 51" fill="none" xmlns="http://www.w3.org/2000/svg">
<g id="icon-carb">
<path id="Vector" d="M46.7486 7.45821C47.5557 6.65109 47.5557 5.34596 46.7486 4.54743C45.9414 3.7489 44.6363 3.74032 43.8378 4.54743L36.2732 12.0948C35.4661 12.9019 35.4661 14.2071 36.2732 15.0056C37.0803 15.8041 38.3854 15.8127 39.184 15.0056L46.74 7.44962L46.7486 7.45821ZM29.6188 6.28188C29.0864 5.74952 28.2106 5.74952 27.6783 6.28188L26.6994 7.25213C23.4796 10.472 23.4796 15.6925 26.6994 18.9124L27.5924 19.8054L24.9736 22.4242C24.6816 20.0801 23.6427 17.8048 21.8396 16.0016L20.8693 15.0314C20.337 14.499 19.4611 14.499 18.9288 15.0314L17.9585 16.0016C14.7387 19.2215 14.7387 24.442 17.9585 27.6619L18.8515 28.5549L16.2327 31.1737C15.9407 28.8296 14.9018 26.5542 13.0987 24.7511L12.1284 23.7723C11.596 23.2399 10.7202 23.2399 10.1879 23.7723L9.21763 24.7425C5.99775 27.9624 5.99775 33.1829 9.21763 36.4028L10.1106 37.2958L4.19462 43.2117C3.12133 44.285 3.12133 46.0281 4.19462 47.1014C5.26791 48.1747 7.01094 48.1747 8.08423 47.1014L14.0002 41.1854L15.0478 42.2329C18.2676 45.4528 23.4881 45.4528 26.708 42.2329L27.6783 41.2626C28.2106 40.7303 28.2106 39.8545 27.6783 39.3221L26.708 38.3519C24.8362 36.4801 22.4492 35.4239 20.0021 35.1835L22.7411 32.4445L23.7887 33.492C27.0085 36.7119 32.229 36.7119 35.4489 33.492L36.4192 32.5217C36.9515 31.9894 36.9515 31.1136 36.4192 30.5812L35.4489 29.611C33.5771 27.7392 31.1901 26.683 28.743 26.4426L31.482 23.7036L32.5296 24.7511C35.7494 27.971 40.9699 27.971 44.1898 24.7511L45.1601 23.7723C45.6924 23.2399 45.6924 22.3641 45.1601 21.8317L44.1898 20.8529C43.7433 20.4064 43.2797 20.0114 42.7817 19.6594L46.7486 15.7011C47.5557 14.894 47.5557 13.5889 46.7486 12.7903C45.9414 11.9918 44.6363 11.9832 43.8378 12.7903L38.7375 17.8906C36.9687 17.5128 35.1312 17.5729 33.3882 18.0709C33.912 16.242 33.9549 14.3101 33.5084 12.464L38.5057 7.45821C39.3128 6.65109 39.3128 5.34596 38.5057 4.54743C37.6985 3.7489 36.3934 3.74032 35.5949 4.54743L31.6452 8.47998C31.3275 8.05066 30.9754 7.63852 30.5805 7.25213L29.6188 6.28188Z" fill="black"/>
</g>
</svg>
