<svg width="51" height="51" viewBox="0 0 51 51" fill="none" xmlns="http://www.w3.org/2000/svg">
<g id="icon-calories">
<path id="Vector" d="M18.3238 12.3292C19.0932 10.9069 20.2417 9.72564 21.6418 8.91653C23.0419 8.10742 24.6388 7.70212 26.2553 7.74563C27.8718 7.78913 29.4446 8.27974 30.7991 9.163C32.1537 10.0462 33.237 11.2876 33.9288 12.7492C32.1077 12.7902 30.3381 13.3609 28.8361 14.3913C27.3342 15.4218 26.1649 16.8675 25.4713 18.5517C24.8308 17.4862 24.0645 16.5017 23.1888 15.6192C21.7804 14.2362 20.1318 13.1213 18.3238 12.3292ZM43.4963 22.7467C43.5096 22.5401 43.5163 22.3317 43.5163 22.1217C43.5171 20.0904 42.8581 18.1137 41.6385 16.4892C40.4189 14.8647 38.7047 13.6803 36.7538 13.1142C36.0799 10.9795 34.7848 9.09417 33.034 7.69927C31.2832 6.30438 29.1562 5.46326 26.9248 5.28345C24.6935 5.10363 22.4592 5.59328 20.5076 6.68981C18.556 7.78634 16.9757 9.43994 15.9688 11.4392C14.9743 11.1296 13.9615 10.8825 12.9363 10.6992C11.2022 10.3877 9.4431 10.2362 7.68127 10.2467L7.22127 10.2617H7.21127C6.90546 10.2796 6.61686 10.4091 6.40026 10.6257C6.18365 10.8423 6.05413 11.1309 6.03627 11.4367V11.4392L6.01627 11.9092C6.00448 13.6735 6.15511 15.4351 6.46627 17.1717C6.77377 18.8767 7.29377 20.8317 8.17877 22.7467H7.26627C6.93475 22.7467 6.6168 22.8784 6.38238 23.1128C6.14796 23.3473 6.01627 23.6652 6.01627 23.9967V25.2467C6.01627 26.9717 6.23627 28.6467 6.64627 30.2467H45.3863C45.8062 28.6133 46.0179 26.9333 46.0163 25.2467V23.9967C46.0163 23.6652 45.8846 23.3473 45.6502 23.1128C45.4157 22.8784 45.0978 22.7467 44.7663 22.7467H43.4963ZM10.9763 22.7467C9.89127 20.7917 9.27127 18.6492 8.92627 16.7267C8.69048 15.4139 8.55508 14.0851 8.52127 12.7517L8.80627 12.7617C9.73627 12.7942 11.0313 12.8942 12.4913 13.1592C15.4413 13.6917 18.9063 14.8717 21.4213 17.3867C22.9613 18.9267 24.0038 20.8267 24.7038 22.7467H20.2863L15.6513 18.1117C15.535 17.9957 15.3971 17.9036 15.2453 17.8409C15.0935 17.7781 14.9309 17.7459 14.7666 17.746C14.6024 17.7461 14.4398 17.7786 14.2881 17.8416C14.1364 17.9045 13.9986 17.9968 13.8825 18.113C13.7665 18.2292 13.6744 18.3671 13.6117 18.5189C13.5489 18.6707 13.5167 18.8334 13.5168 18.9976C13.5169 19.1618 13.5494 19.3245 13.6124 19.4762C13.6753 19.6279 13.7675 19.7657 13.8838 19.8817L16.7513 22.7467H10.9763ZM27.3463 22.7467L27.2788 22.5442C27.2244 21.6011 27.3649 20.6568 27.6917 19.7704C28.0185 18.884 28.5244 18.0744 29.178 17.3922C29.8315 16.71 30.6187 16.1699 31.4903 15.8054C32.3619 15.441 33.2993 15.2601 34.2439 15.2741C35.1885 15.288 36.1201 15.4965 36.9806 15.8865C37.841 16.2765 38.6119 16.8397 39.245 17.5409C39.8782 18.2421 40.36 19.0662 40.6604 19.9619C40.9609 20.8576 41.0735 21.8056 40.9913 22.7467H27.3463ZM26.0163 45.2467C22.0316 45.2476 18.1375 44.0582 14.8333 41.8311C11.5291 39.604 8.96552 36.4406 7.47127 32.7467H44.5638C43.0694 36.441 40.5054 39.6046 37.2007 41.8318C33.896 44.059 30.0014 45.2481 26.0163 45.2467Z" fill="black"/>
</g>
</svg>
