<svg width="35" height="35" viewBox="0 0 35 35" fill="none" xmlns="http://www.w3.org/2000/svg">
    <g id="shop">
        <path d="M17.5 18.9585C15.5661 18.9585 13.7115 18.1903 12.344 16.8228C10.9766 15.4554 10.2083 13.6007 10.2083 11.6668H13.125C13.125 12.8272 13.5859 13.94 14.4064 14.7604C15.2269 15.5809 16.3397 16.0418 17.5 16.0418C18.6603 16.0418 19.7731 15.5809 20.5936 14.7604C21.4141 13.94 21.875 12.8272 21.875 11.6668H24.7917C24.7917 13.6007 24.0234 15.4554 22.656 16.8228C21.2885 18.1903 19.4339 18.9585 17.5 18.9585ZM17.5 4.37516C18.6603 4.37516 19.7731 4.8361 20.5936 5.65657C21.4141 6.47704 21.875 7.58984 21.875 8.75016H13.125C13.125 7.58984 13.5859 6.47704 14.4064 5.65657C15.2269 4.8361 16.3397 4.37516 17.5 4.37516ZM27.7083 8.75016H24.7917C24.7917 7.79261 24.6031 6.84443 24.2366 5.95976C23.8702 5.0751 23.3331 4.27127 22.656 3.59418C21.9789 2.91708 21.1751 2.37998 20.2904 2.01354C19.4057 1.6471 18.4576 1.4585 17.5 1.4585C15.5661 1.4585 13.7115 2.22672 12.344 3.59418C10.9766 4.96163 10.2083 6.81629 10.2083 8.75016H7.29167C5.67292 8.75016 4.375 10.0481 4.375 11.6668V29.1668C4.375 29.9404 4.68229 30.6822 5.22927 31.2292C5.77625 31.7762 6.51812 32.0835 7.29167 32.0835H27.7083C28.4819 32.0835 29.2237 31.7762 29.7707 31.2292C30.3177 30.6822 30.625 29.9404 30.625 29.1668V11.6668C30.625 10.8933 30.3177 10.1514 29.7707 9.60443C29.2237 9.05745 28.4819 8.75016 27.7083 8.75016Z"/>
    </g>
</svg>
