<svg width="40" height="40" viewBox="0 0 40 40" fill="none" xmlns="http://www.w3.org/2000/svg">
<g id="svg">
<path id="Vector" d="M20 19.1663C18.8949 19.1663 17.8351 18.7274 17.0537 17.946C16.2723 17.1646 15.8333 16.1047 15.8333 14.9997C15.8333 13.8946 16.2723 12.8348 17.0537 12.0534C17.8351 11.272 18.8949 10.833 20 10.833C21.1051 10.833 22.1649 11.272 22.9463 12.0534C23.7277 12.8348 24.1667 13.8946 24.1667 14.9997C24.1667 15.5468 24.0589 16.0887 23.8495 16.5942C23.6401 17.0997 23.3332 17.559 22.9463 17.946C22.5594 18.3329 22.1 18.6398 21.5945 18.8492C21.089 19.0586 20.5472 19.1663 20 19.1663ZM20 3.33301C16.9058 3.33301 13.9383 4.56217 11.7504 6.7501C9.5625 8.93802 8.33333 11.9055 8.33333 14.9997C8.33333 23.7497 20 36.6663 20 36.6663C20 36.6663 31.6667 23.7497 31.6667 14.9997C31.6667 11.9055 30.4375 8.93802 28.2496 6.7501C26.0617 4.56217 23.0942 3.33301 20 3.33301Z" fill="black"/>
</g>
</svg>
