<svg width="66" height="66" viewBox="0 0 66 66" fill="none" xmlns="http://www.w3.org/2000/svg">
<g id="svg">
    <path fill-rule="evenodd" clip-rule="evenodd" d="M22.3231 5C17.7208 5 14.6212 9.19775 15.4952 13.7508L17.2511 24.2492C10.3497 27.226 5 32.6488 5 39.1251V43.1514C5 48.5742 8.53241 53.1231 13.486 56.0999C18.5947 59.2482 25.2961 61 32.9122 61C40.5283 61 47.2297 59.2523 52.3384 56.0999C57.4676 53.1231 61 48.5742 61 43.1514V39.1251C61 32.6488 55.6462 27.4016 48.7488 24.4248L50.5008 13.7508C51.1991 9.19775 47.928 5 43.3257 5C39.2624 5 36.4977 8.3239 36.4977 12.3502V21.7665C35.1174 21.5909 33.9617 21.5909 32.9122 21.5909H28.9224L29.4982 12.3502C29.4982 8.3239 26.366 5 22.3231 5ZM23.3726 43.4985C24.8428 43.4985 25.9985 41.4894 25.9985 39.1251C25.9985 36.7608 24.8428 34.7477 23.3726 34.7477C21.9025 34.7477 20.7468 36.7649 20.7468 39.1251C20.7468 41.4853 21.9025 43.4985 23.3726 43.4985ZM42.6233 43.4985C44.0934 43.4985 45.2491 41.4894 45.2491 39.1251C45.2491 36.7608 44.0934 34.7477 42.6233 34.7477C41.1531 34.7477 39.9974 36.7608 39.9974 39.1251C39.9974 41.4894 41.1531 43.4985 42.6233 43.4985Z"/>
</g>
</svg>
