<svg width="60" height="60" viewBox="0 0 60 60" fill="none" xmlns="http://www.w3.org/2000/svg">
<path id="close" d="M45.7496 14.2746C45.5183 14.0428 45.2436 13.859 44.9411 13.7335C44.6387 13.608 44.3145 13.5435 43.9871 13.5435C43.6597 13.5435 43.3354 13.608 43.033 13.7335C42.7306 13.859 42.4559 14.0428 42.2246 14.2746L29.9996 26.4746L17.7746 14.2496C17.5431 14.0181 17.2684 13.8345 16.9659 13.7093C16.6635 13.584 16.3394 13.5195 16.0121 13.5195C15.6848 13.5195 15.3606 13.584 15.0582 13.7093C14.7558 13.8345 14.481 14.0181 14.2496 14.2496C14.0181 14.481 13.8345 14.7558 13.7093 15.0582C13.584 15.3606 13.5195 15.6848 13.5195 16.0121C13.5195 16.3394 13.584 16.6635 13.7093 16.9659C13.8345 17.2684 14.0181 17.5431 14.2496 17.7746L26.4746 29.9996L14.2496 42.2246C14.0181 42.456 13.8345 42.7308 13.7093 43.0332C13.584 43.3356 13.5195 43.6598 13.5195 43.9871C13.5195 44.3144 13.584 44.6385 13.7093 44.9409C13.8345 45.2433 14.0181 45.5181 14.2496 45.7496C14.481 45.981 14.7558 46.1646 15.0582 46.2899C15.3606 46.4152 15.6848 46.4796 16.0121 46.4796C16.3394 46.4796 16.6635 46.4152 16.9659 46.2899C17.2684 46.1646 17.5431 45.981 17.7746 45.7496L29.9996 33.5246L42.2246 45.7496C42.456 45.981 42.7308 46.1646 43.0332 46.2899C43.3356 46.4152 43.6598 46.4796 43.9871 46.4796C44.3144 46.4796 44.6385 46.4152 44.9409 46.2899C45.2433 46.1646 45.5181 45.981 45.7496 45.7496C45.981 45.5181 46.1646 45.2433 46.2899 44.9409C46.4152 44.6385 46.4796 44.3144 46.4796 43.9871C46.4796 43.6598 46.4152 43.3356 46.2899 43.0332C46.1646 42.7308 45.981 42.456 45.7496 42.2246L33.5246 29.9996L45.7496 17.7746C46.6996 16.8246 46.6996 15.2246 45.7496 14.2746Z"/>
</svg>
