<svg width="51" height="51" viewBox="0 0 51 51" fill="none" xmlns="http://www.w3.org/2000/svg">
<g id="icon-protein">
<path id="Vector" d="M11.3584 46.0804C11.3584 41.254 12.3653 37.3394 14.3792 34.3367C16.3931 31.3339 19.1709 28.304 22.7126 25.2471C19.1709 22.1915 16.3931 19.1624 14.3792 16.1596C12.3653 13.1568 11.3584 9.24152 11.3584 4.41374V3.89291C11.3584 3.30263 11.5584 2.80819 11.9584 2.40958C12.3584 2.01097 12.8528 1.81097 13.4417 1.80958C14.0306 1.80819 14.5258 2.00819 14.9271 2.40958C15.3285 2.81097 15.5278 3.30541 15.5251 3.89291V4.41374C15.5251 4.79569 15.5341 5.15194 15.5521 5.48249C15.5702 5.81305 15.5959 6.15124 15.6292 6.49708H36.2542C36.289 6.14985 36.3153 5.81097 36.3334 5.48041C36.3515 5.14986 36.3598 4.7943 36.3584 4.41374V3.89291C36.3584 3.30263 36.5584 2.80819 36.9584 2.40958C37.3584 2.01097 37.8528 1.81097 38.4417 1.80958C39.0306 1.80819 39.5258 2.00819 39.9271 2.40958C40.3285 2.81097 40.5278 3.30541 40.5251 3.89291V4.41374C40.5251 9.24013 39.5181 13.1554 37.5042 16.1596C35.4903 19.1637 32.7126 22.1929 29.1709 25.2471C32.7126 28.3026 35.4903 31.3325 37.5042 34.3367C39.5181 37.3408 40.5251 41.2554 40.5251 46.0804V46.6012C40.5251 47.1915 40.3251 47.6867 39.9251 48.0867C39.5251 48.4867 39.0306 48.686 38.4417 48.6846C37.8528 48.6832 37.3584 48.4832 36.9584 48.0846C36.5584 47.686 36.3584 47.1915 36.3584 46.6012V46.0804C36.3584 45.6985 36.3501 45.3422 36.3334 45.0117C36.3167 44.6811 36.2903 44.3429 36.2542 43.9971H15.6292C15.5945 44.3443 15.5688 44.6832 15.5521 45.0137C15.5355 45.3443 15.5265 45.6999 15.5251 46.0804V46.6012C15.5251 47.1915 15.3251 47.6867 14.9251 48.0867C14.5251 48.4867 14.0306 48.686 13.4417 48.6846C12.8528 48.6832 12.3584 48.4832 11.9584 48.0846C11.5584 47.686 11.3584 47.1915 11.3584 46.6012V46.0804ZM18.5459 14.8304H33.3376C33.789 14.1707 34.1799 13.511 34.5105 12.8512C34.841 12.1915 35.1445 11.4624 35.4209 10.6637H16.4626C16.7403 11.4276 17.0438 12.1485 17.373 12.8262C17.7021 13.504 18.0931 14.1721 18.5459 14.8304ZM25.9417 22.5387C26.6362 21.9485 27.3133 21.3582 27.973 20.7679C28.6327 20.1776 29.2577 19.5874 29.848 18.9971H22.0355C22.6258 19.5874 23.2508 20.1776 23.9105 20.7679C24.5702 21.3582 25.2473 21.9485 25.9417 22.5387ZM22.0355 31.4971H29.848C29.2577 30.9068 28.6327 30.3165 27.973 29.7262C27.3133 29.136 26.6362 28.5457 25.9417 27.9554C25.2473 28.5457 24.5702 29.136 23.9105 29.7262C23.2508 30.3165 22.6258 30.9068 22.0355 31.4971ZM16.4626 39.8304H35.4209C35.1431 39.0665 34.8396 38.3464 34.5105 37.67C34.1813 36.9936 33.7903 36.3249 33.3376 35.6637H18.5459C18.0945 36.3235 17.7042 36.9832 17.3751 37.6429C17.0459 38.3026 16.7417 39.0318 16.4626 39.8304Z" fill="black"/>
</g>
</svg>
