<svg width="66" height="66" viewBox="0 0 66 66" fill="none" xmlns="http://www.w3.org/2000/svg">
<g id="svg">
<path id="Vector" d="M50.8198 30.5118C50.0971 29.5785 49.2172 28.7696 48.4002 27.9607C46.2949 26.0939 43.9068 24.7561 41.8957 22.7961C37.2137 18.2537 36.1768 10.7557 39.1619 5C36.1768 5.71558 33.5687 7.3334 31.3377 9.10678C23.1991 15.5781 19.994 26.9962 23.8276 36.7965C23.9533 37.1076 24.079 37.4187 24.079 37.8232C24.079 38.5076 23.6076 39.1299 22.9792 39.3788C22.2565 39.6899 21.5023 39.5032 20.9053 39.0054C20.7269 38.8575 20.5778 38.6782 20.4654 38.4765C16.9146 34.0275 16.349 27.6495 18.7371 22.5472C13.4895 26.7784 10.63 33.9342 11.0385 40.6855C11.2271 42.2411 11.4156 43.7967 11.9498 45.3523C12.3897 47.219 13.2381 49.0857 14.1808 50.7346C17.5745 56.117 23.4505 59.9749 29.7665 60.7527C36.491 61.5927 43.6868 60.3794 48.8402 55.7748C54.5905 50.6102 56.6016 42.3344 53.6479 35.2409L53.2394 34.432C52.5795 33.0008 50.8198 30.5118 50.8198 30.5118ZM40.8902 50.1124C40.0104 50.8591 38.5649 51.668 37.4337 51.9791C33.9143 53.2236 30.395 51.4813 28.3211 49.4279C32.0604 48.5568 34.2914 45.8189 34.9513 43.05C35.4855 40.561 34.4799 38.5076 34.0714 36.112C33.6944 33.8097 33.7572 31.8497 34.6056 29.7029C35.2027 30.8852 35.8311 32.0674 36.5853 33.0008C39.0048 36.112 42.807 37.4809 43.624 41.7122C43.7497 42.1477 43.8125 42.5833 43.8125 43.05C43.9068 45.6012 42.7756 48.4012 40.8902 50.1124Z"/>
</g>
</svg>
