<svg width="40" height="40" viewBox="0 0 40 40" fill="none" xmlns="http://www.w3.org/2000/svg">
<g id="svg">
<path id="Vector" d="M31.2 9H8.8C7.26 9 6.014 10.2375 6.014 11.75L6 28.25C6 29.7625 7.26 31 8.8 31H31.2C32.74 31 34 29.7625 34 28.25V11.75C34 10.2375 32.74 9 31.2 9ZM30.64 14.8438L20.742 20.9213C20.294 21.1962 19.706 21.1962 19.258 20.9213L9.36 14.8438C9.21962 14.7664 9.09669 14.6618 8.99864 14.5364C8.9006 14.411 8.82949 14.2673 8.78961 14.1141C8.74972 13.961 8.7419 13.8014 8.76662 13.6452C8.79133 13.4889 8.84807 13.3392 8.93339 13.2052C9.01872 13.0711 9.13085 12.9554 9.26302 12.8651C9.39518 12.7748 9.54462 12.7118 9.70229 12.6799C9.85997 12.648 10.0226 12.6478 10.1803 12.6794C10.3381 12.711 10.4876 12.7737 10.62 12.8637L20 18.625L29.38 12.8637C29.5124 12.7737 29.6619 12.711 29.8197 12.6794C29.9774 12.6478 30.14 12.648 30.2977 12.6799C30.4554 12.7118 30.6048 12.7748 30.737 12.8651C30.8691 12.9554 30.9813 13.0711 31.0666 13.2052C31.1519 13.3392 31.2087 13.4889 31.2334 13.6452C31.2581 13.8014 31.2503 13.961 31.2104 14.1141C31.1705 14.2673 31.0994 14.411 31.0014 14.5364C30.9033 14.6618 30.7804 14.7664 30.64 14.8438Z" fill="black"/>
</g>
</svg>
