<svg width="66" height="66" viewBox="0 0 66 66" fill="none" xmlns="http://www.w3.org/2000/svg">
    <g id="svg">
        <path
            d="M55 11C58.0525 11 60.5 13.4475 60.5 16.5V49.5C60.5 52.5525 58.0525 55 55 55H11C7.9475 55 5.5 52.5525 5.5 49.5V16.5C5.5 13.4475 7.9475 11 11 11H55ZM23.375 41.25V24.75H19.9375V34.375L13.0625 24.75H9.625V41.25H13.0625V31.625L20.075 41.25H23.375ZM37.125 28.215V24.75H26.125V41.25H37.125V37.8125H30.25V34.76H37.125V31.295H30.25V28.215H37.125ZM56.375 38.5V24.75H52.9375V37.125H49.8575V27.5H46.42V37.125H43.3125V24.75H39.875V38.5C39.875 39.2293 40.1647 39.9288 40.6805 40.4445C41.1962 40.9603 41.8957 41.25 42.625 41.25H53.625C54.3543 41.25 55.0538 40.9603 55.5695 40.4445C56.0853 39.9288 56.375 39.2293 56.375 38.5Z"
        />
    </g>
</svg>
