<svg width="35" height="35" viewBox="0 0 35 35" fill="none" xmlns="http://www.w3.org/2000/svg">
<path d="M5.46875 15.3123C5.17867 15.3123 4.90047 15.197 4.69535 14.9919C4.49023 14.7868 4.375 14.5086 4.375 14.2185V5.4707C4.375 5.18062 4.49023 4.90242 4.69535 4.69731C4.90047 4.49219 5.17867 4.37695 5.46875 4.37695H14.2188C14.5088 4.37695 14.787 4.49219 14.9921 4.69731C15.1973 4.90242 15.3125 5.18062 15.3125 5.4707V14.2185C15.3125 14.5086 15.1973 14.7868 14.9921 14.9919C14.787 15.197 14.5088 15.3123 14.2188 15.3123H5.46875ZM20.7812 15.3123C20.4912 15.3123 20.213 15.197 20.0079 14.9919C19.8027 14.7868 19.6875 14.5086 19.6875 14.2185V5.4707C19.6875 5.18062 19.8027 4.90242 20.0079 4.69731C20.213 4.49219 20.4912 4.37695 20.7812 4.37695H29.5291C29.8191 4.37695 30.0973 4.49219 30.3025 4.69731C30.5076 4.90242 30.6228 5.18062 30.6228 5.4707V14.2185C30.6228 14.5086 30.5076 14.7868 30.3025 14.9919C30.0973 15.197 29.8191 15.3123 29.5291 15.3123H20.7812ZM5.46875 30.6248C5.17867 30.6248 4.90047 30.5095 4.69535 30.3044C4.49023 30.0993 4.375 29.8211 4.375 29.531V20.781C4.375 20.4909 4.49023 20.2127 4.69535 20.0076C4.90047 19.8025 5.17867 19.6873 5.46875 19.6873H14.2188C14.5088 19.6873 14.787 19.8025 14.9921 20.0076C15.1973 20.2127 15.3125 20.4909 15.3125 20.781V29.531C15.3125 29.8211 15.1973 30.0993 14.9921 30.3044C14.787 30.5095 14.5088 30.6248 14.2188 30.6248H5.46875ZM20.7812 30.6248C20.4912 30.6248 20.213 30.5095 20.0079 30.3044C19.8027 30.0993 19.6875 29.8211 19.6875 29.531V20.781C19.6875 20.4909 19.8027 20.2127 20.0079 20.0076C20.213 19.8025 20.4912 19.6873 20.7812 19.6873H29.5291C29.8191 19.6873 30.0973 19.8025 30.3025 20.0076C30.5076 20.2127 30.6228 20.4909 30.6228 20.781V29.531C30.6228 29.8211 30.5076 30.0993 30.3025 30.3044C30.0973 30.5095 29.8191 30.6248 29.5291 30.6248H20.7812Z" fill="black"/>
</svg>
