<svg width="31" height="31" viewBox="0 0 31 31" fill="none" xmlns="http://www.w3.org/2000/svg">
<g id="icon-quiz">
<path id="Vector" fill-rule="evenodd" clip-rule="evenodd" d="M15.5176 27.8887C18.8033 27.8887 21.9544 26.5834 24.2777 24.2601C26.601 21.9368 27.9062 18.7857 27.9062 15.5C27.9062 12.2143 26.601 9.06321 24.2777 6.73989C21.9544 4.41656 18.8033 3.11133 15.5176 3.11133C12.2319 3.11133 9.08079 4.41656 6.75746 6.73989C4.43414 9.06321 3.12891 12.2143 3.12891 15.5C3.12891 18.7857 4.43414 21.9368 6.75746 24.2601C9.08079 26.5834 12.2319 27.8887 15.5176 27.8887ZM10.7588 10.8388C10.3179 11.5036 10.0975 12.1592 10.0975 12.8055C10.0975 13.1203 10.2369 13.4125 10.5157 13.682C10.7944 13.9514 11.1356 14.0856 11.5393 14.0846C12.2258 14.0846 12.6919 13.6995 12.9376 12.9294C13.1978 12.1933 13.5158 11.6358 13.8916 11.2569C14.2674 10.879 14.8527 10.6901 15.6477 10.6901C16.327 10.6901 16.8819 10.8775 17.3124 11.2522C17.7419 11.628 17.9566 12.0885 17.9566 12.6336C17.9585 12.907 17.8856 13.1758 17.746 13.411C17.6025 13.6497 17.4275 13.8679 17.2257 14.0598C16.9 14.358 16.5654 14.6462 16.2222 14.9239C15.6957 15.3606 15.2765 15.7374 14.9647 16.0544C14.655 16.3724 14.4057 16.7404 14.2168 17.1585C13.7181 19.0865 16.3074 19.2414 16.9051 17.8647C16.9774 17.7325 17.0873 17.5859 17.235 17.4249C17.3836 17.2649 17.5808 17.079 17.8265 16.8674C18.4531 16.3456 19.0695 15.8117 19.6755 15.2662C20.0183 14.9503 20.3141 14.5734 20.5629 14.1357C20.8199 13.6697 20.9492 13.144 20.9376 12.6119C20.9376 11.8768 20.7188 11.1955 20.281 10.5678C19.8443 9.93903 19.2249 9.44246 18.4227 9.07802C17.6206 8.71359 16.6955 8.53137 15.6477 8.53137C14.5203 8.53137 13.5338 8.74972 12.6883 9.18642C11.8428 9.62312 11.1996 10.1749 10.7588 10.8388ZM14.0727 21.8027C14.0727 22.2134 14.2359 22.6073 14.5263 22.8978C14.8167 23.1882 15.2106 23.3513 15.6213 23.3513C16.032 23.3513 16.4259 23.1882 16.7163 22.8978C17.0068 22.6073 17.1699 22.2134 17.1699 21.8027C17.1699 21.392 17.0068 20.9981 16.7163 20.7077C16.4259 20.4173 16.032 20.2542 15.6213 20.2542C15.2106 20.2542 14.8167 20.4173 14.5263 20.7077C14.2359 20.9981 14.0727 21.392 14.0727 21.8027Z" fill="black"/>
</g>
</svg>
