<svg width="60" height="60" viewBox="0 0 60 60" fill="none" xmlns="http://www.w3.org/2000/svg">
<g id="icon-coupon">
<path id="Vector" d="M10 10C8.67392 10 7.40215 10.5268 6.46447 11.4645C5.52678 12.4021 5 13.6739 5 15V25C6.32608 25 7.59785 25.5268 8.53553 26.4645C9.47322 27.4021 10 28.6739 10 30C10 31.3261 9.47322 32.5979 8.53553 33.5355C7.59785 34.4732 6.32608 35 5 35V45C5 46.3261 5.52678 47.5979 6.46447 48.5355C7.40215 49.4732 8.67392 50 10 50H50C51.3261 50 52.5979 49.4732 53.5355 48.5355C54.4732 47.5979 55 46.3261 55 45V35C53.6739 35 52.4021 34.4732 51.4645 33.5355C50.5268 32.5979 50 31.3261 50 30C50 28.6739 50.5268 27.4021 51.4645 26.4645C52.4021 25.5268 53.6739 25 55 25V15C55 13.6739 54.4732 12.4021 53.5355 11.4645C52.5979 10.5268 51.3261 10 50 10H10ZM38.75 17.5L42.5 21.25L21.25 42.5L17.5 38.75L38.75 17.5ZM22.025 17.6C24.475 17.6 26.45 19.575 26.45 22.025C26.45 23.1986 25.9838 24.3241 25.1539 25.1539C24.3241 25.9838 23.1986 26.45 22.025 26.45C19.575 26.45 17.6 24.475 17.6 22.025C17.6 20.8514 18.0662 19.7259 18.8961 18.8961C19.7259 18.0662 20.8514 17.6 22.025 17.6ZM37.975 33.55C40.425 33.55 42.4 35.525 42.4 37.975C42.4 39.1486 41.9338 40.2741 41.104 41.104C40.2741 41.9338 39.1486 42.4 37.975 42.4C35.525 42.4 33.55 40.425 33.55 37.975C33.55 36.8014 34.0162 35.6759 34.8461 34.8461C35.6759 34.0162 36.8014 33.55 37.975 33.55Z"/>
</g>
</svg>
