<svg width="60" height="60" viewBox="0 0 60 60" fill="none" xmlns="http://www.w3.org/2000/svg">
<g id="icon-edit">
<path id="Vector" d="M41.1925 7.51015C41.61 7.54765 41.7925 8.05765 41.4925 8.35515L20.6925 29.1552C20.4576 29.3903 20.2893 29.6836 20.205 30.0052L17.705 39.5802C17.6225 39.8966 17.6242 40.2291 17.7099 40.5447C17.7956 40.8603 17.9623 41.1479 18.1935 41.3792C18.4248 41.6104 18.7124 41.7771 19.028 41.8628C19.3436 41.9485 19.6761 41.9502 19.9925 41.8677L29.565 39.3677C29.8868 39.2825 30.1801 39.1134 30.415 38.8777L51.51 17.7827C51.576 17.7149 51.6601 17.6675 51.7522 17.646C51.8443 17.6245 51.9406 17.6299 52.0298 17.6614C52.119 17.693 52.1972 17.7494 52.2553 17.8241C52.3134 17.8987 52.3489 17.9885 52.3575 18.0827C53.2352 26.4567 53.1849 34.9021 52.2075 43.2652C51.65 48.0277 47.8225 51.7652 43.0775 52.2977C34.3867 53.2612 25.6159 53.2612 16.925 52.2977C12.1775 51.7652 8.35004 48.0277 7.79254 43.2652C6.76186 34.4527 6.76186 25.5501 7.79254 16.7377C8.35004 11.9727 12.1775 8.23515 16.925 7.70515C24.9863 6.8118 33.1179 6.74645 41.1925 7.51015Z"/>
<path id="Vector_2" d="M44.5573 10.5923C44.6154 10.5341 44.6843 10.4879 44.7603 10.4564C44.8362 10.4249 44.9176 10.4087 44.9998 10.4087C45.082 10.4087 45.1634 10.4249 45.2394 10.4564C45.3153 10.4879 45.3843 10.5341 45.4423 10.5923L48.9773 14.1298C49.0941 14.247 49.1597 14.4056 49.1597 14.5711C49.1597 14.7365 49.0941 14.8952 48.9773 15.0123L28.2448 35.7498C28.1658 35.8281 28.0675 35.8842 27.9598 35.9123L23.1748 37.1623C23.0693 37.1898 22.9585 37.1893 22.8533 37.1607C22.7481 37.1321 22.6522 37.0766 22.5751 36.9995C22.4981 36.9224 22.4425 36.8265 22.4139 36.7213C22.3854 36.6161 22.3848 36.5053 22.4123 36.3998L23.6623 31.6148C23.6901 31.507 23.7462 31.4086 23.8248 31.3298L44.5573 10.5923Z"/>
</g>
</svg>
