<svg width="30" height="27" viewBox="0 0 30 27" fill="none" xmlns="http://www.w3.org/2000/svg">
<g id="arrow" clip-path="url(#clip0_826_3879)">
<path id="Vector" fill-rule="evenodd" clip-rule="evenodd" d="M28.5 13.4998C28.5 13.8355 28.3667 14.1574 28.1293 14.3948C27.892 14.6321 27.57 14.7655 27.2344 14.7655L6.42924 14.7655L11.0192 19.3555C11.2428 19.5954 11.3645 19.9127 11.3587 20.2406C11.3529 20.5685 11.2201 20.8813 10.9882 21.1132C10.7563 21.3451 10.4435 21.4779 10.1156 21.4837C9.78774 21.4895 9.47041 21.3678 9.23049 21.1442L2.48049 14.3942C2.24348 14.1569 2.11035 13.8352 2.11035 13.4998C2.11035 13.1644 2.24348 12.8428 2.48049 12.6055L9.23049 5.85546C9.47041 5.6319 9.78774 5.51019 10.1156 5.51597C10.4435 5.52176 10.7563 5.65459 10.9882 5.88647C11.2201 6.11835 11.3529 6.43119 11.3587 6.75908C11.3645 7.08696 11.2428 7.40429 11.0192 7.64421L6.42924 12.2342L27.2344 12.2342C27.57 12.2342 27.892 12.3675 28.1293 12.6049C28.3667 12.8423 28.5 13.1642 28.5 13.4998Z" fill="black"/>
</g>
</svg>
